<svg width="88" height="88" viewBox="0 0 88 88" fill="none" xmlns="http://www.w3.org/2000/svg">
<g clip-path="url(#clip0_12_4)">
<path fill-rule="evenodd" clip-rule="evenodd" d="M14.5514 33C16.7952 27.0011 20.8176 21.8305 26.0804 18.1801C31.3431 14.5298 37.5952 12.5737 44 12.5737C50.4048 12.5737 56.6569 14.5298 61.9196 18.1801C67.1824 21.8305 71.2048 27.0011 73.4486 33H14.5514ZM12.6091 42.4286C12.2188 50.2089 14.7319 57.8569 19.6609 63.8892C24.59 69.9216 31.5837 73.9085 39.2857 75.0766V57.4703L26.1234 42.4286H12.6091ZM48.7143 75.0766C56.4163 73.9085 63.41 69.9216 68.3391 63.8892C73.2681 57.8569 75.7812 50.2089 75.3909 42.4286H61.8766L48.7143 57.4703V75.0766ZM44 0C32.3305 0 21.1389 4.6357 12.8873 12.8873C4.6357 21.1389 0 32.3305 0 44C0 55.6695 4.6357 66.8611 12.8873 75.1127C21.1389 83.3643 32.3305 88 44 88C55.6695 88 66.8611 83.3643 75.1127 75.1127C83.3643 66.8611 88 55.6695 88 44C88 32.3305 83.3643 21.1389 75.1127 12.8873C66.8611 4.6357 55.6695 0 44 0Z" fill="white"/>
</g>
<defs>
<clipPath id="clip0_12_4">
<rect width="88" height="88" fill="white"/>
</clipPath>
</defs>
</svg>
