<svg width="89" height="65" viewBox="0 0 89 65" fill="none" xmlns="http://www.w3.org/2000/svg">
<g clip-path="url(#clip0_44_39)">
<path d="M16.3701 64.9845V58.7777H5.55284V57.2261C5.55284 57.2261 53.3701 57.6295 53.4577 57.6295C53.5659 57.6295 53.3804 56.6571 53.3289 56.5588C53.2207 56.3364 52.9632 56.1192 52.8087 55.9278L51.2891 54.0968L48.456 50.6831L48.3015 50.4969H38.5145C36.8713 50.4969 35.1096 50.1556 33.8528 49.0177C33.0131 48.1746 32.395 46.9953 32.3435 45.785C35.0427 45.8315 37.747 45.785 40.4513 45.785C40.7655 45.785 45.7311 45.785 45.7311 45.785C45.7311 45.2522 45.8187 44.9264 45.5199 44.4764C45.3808 44.2695 45.2418 44.0781 45.1336 43.8506C44.8348 43.2506 44.6494 42.5937 44.4897 41.9472C44.0416 40.1472 43.8149 38.2955 43.6295 36.4542C43.3204 33.3922 43.1607 30.2992 43.1607 27.2217C43.1607 25.9079 43.4492 24.5942 44.0673 23.4304C44.3867 22.8356 44.7833 22.2822 45.2418 21.7908C45.4632 21.5529 45.6693 21.4184 45.7363 21.1132C45.7466 21.0667 45.726 20.4977 45.7363 20.4977C44.4691 20.5184 43.2019 20.5443 41.9348 20.565L33.2243 20.7201L23.6279 20.8908L17.1788 21.0046C17.0294 21.0046 16.844 21.0408 16.6946 21.015C16.6482 21.0046 16.571 21.0408 16.5297 21.015C15.3656 20.4253 18.9456 15.6513 19.4452 14.9841C20.7176 13.2876 22.165 11.7255 23.767 10.3394C26.2446 8.19805 29.088 6.47568 32.1375 5.29123C33.0028 4.95503 33.8837 4.64987 34.7851 4.40677C35.4805 4.21539 36.6704 4.23608 37.2112 3.75506C38.5042 2.60682 39.8074 1.46892 41.1055 0.331014C24.0967 -2.25512 14.3096 18.434 14.3096 18.434C14.3096 18.434 13.7945 18.434 11.7341 15.8478C10.2712 14.0065 7.93778 13.2307 5.72798 12.7652C5.40346 12.6979 5.05834 13.2255 4.8523 13.422C4.46597 13.7841 4.07964 14.1358 3.69846 14.5031C3.18335 14.9944 2.42615 15.5789 2.08103 16.2047C1.87499 16.5823 3.13699 16.8254 3.37909 16.9185C3.90965 17.1254 4.40416 17.4254 4.96047 17.565C5.51678 17.7047 6.14006 17.6271 6.71698 17.6271C7.17543 17.6271 7.7781 17.5237 8.22109 17.6426C8.61772 17.7512 9.04011 18.0668 9.40583 18.2581L11.7393 19.4684H3.49242C0.401783 19.4684 0 30.2733 0 30.2733V64.9845H16.3701Z" fill="white"/>
<path d="M58.0473 63.9707C57.7125 63.2518 56.981 63.1535 57.0119 62.238C57.0377 61.4311 57.0634 60.6243 57.0634 59.8174V37.499C57.0634 37.4421 57.0634 36.4077 57.0634 36.4077H65.8202V53.3831C65.8202 55.1003 65.8202 56.8226 65.8202 58.5398C65.8202 59.3984 65.8202 60.257 65.8202 61.1208C65.8202 61.5604 65.8563 62.0208 65.8202 62.4604C65.7996 62.7294 65.4957 63.0294 65.4957 63.2363C65.4957 63.4794 65.0785 63.9242 64.9755 64.1673C64.8982 64.3483 64.8673 64.9948 64.6561 64.9897C63.6207 64.9897 62.5802 64.9897 61.5449 64.9897C60.7825 64.9897 60.0202 64.9897 59.2578 64.9897C59.0002 64.9897 58.7221 65.0207 58.4645 64.9897C57.8722 64.9224 58.2327 64.369 58.0524 63.9759L58.0473 63.9707Z" fill="white"/>
<path d="M56.0332 55.1571V43.7781H56.4917V35.3318H67.0977V43.2609H67.8807V55.1571C67.8807 55.1571 81.7885 35.5025 74.0619 21.5373C74.0619 21.5373 76.1224 17.9167 76.1224 16.3651C76.7044 16.5306 77.2865 16.7013 77.8686 16.8668C78.4352 17.0271 78.9967 17.1926 79.5787 17.2909C79.8723 17.3426 80.1866 17.3995 80.4853 17.3892C80.8819 17.384 81.021 16.8047 81.1086 16.5047C81.1447 16.3702 81.2786 16.0599 81.2528 15.9254C81.191 15.6202 80.6604 15.434 80.4183 15.284C80.1608 15.1237 79.9032 14.9582 79.6457 14.7979C79.0173 14.4048 78.3785 14.022 77.7347 13.6548C77.0908 13.2875 76.452 12.941 75.7876 12.641C75.36 12.4496 74.8295 12.1755 74.3453 12.1807C74.3195 12.1807 74.0671 12.1807 74.0671 12.2221V11.1876C75.6124 10.8617 77.1474 10.4376 78.6515 9.95143C79.8208 9.57385 80.985 9.14973 82.0821 8.59629C82.8497 8.20837 83.8026 7.70666 84.225 6.9153C84.5546 6.2998 83.8799 5.58603 83.5244 5.14639C83.1484 4.68088 82.7569 4.23089 82.2882 3.85849C81.7628 3.43436 81.1601 3.10334 80.5111 2.92231C80.1556 2.82403 79.7848 2.77231 79.419 2.76714C79.0945 2.76714 78.6464 2.69473 78.3425 2.82921C77.6625 3.13437 77.1371 4.31882 76.7766 4.92915C76.2202 5.87568 75.7824 6.89979 75.6485 8.00148C75.6124 8.28596 75.6279 8.57043 75.6021 8.85491C75.5764 9.13938 75.5918 9.10835 75.36 9.24283C75.1076 9.38765 74.8397 9.50661 74.5822 9.63592H70.9765C70.9765 9.63592 70.4613 8.60147 71.4916 7.56701C72.5218 6.53256 73.0369 5.4981 72.5218 4.46364C72.0067 3.42919 60.1592 -5.36368 50.3722 4.98087C50.3722 4.98087 49.8571 7.04978 51.9175 7.56701V9.63592C51.9175 9.72385 49.8623 9.76523 49.718 9.76523C49.2441 9.76005 48.729 9.74971 48.2809 9.58937C47.7967 9.41351 47.807 9.01525 47.74 8.5756C47.6679 8.07389 47.5288 7.57218 47.4001 7.08082C47.2455 6.50669 47.0755 5.93257 46.8953 5.36362C46.648 4.58261 45.999 3.88952 45.4427 3.31023C45.113 2.96886 44.7524 2.56025 44.2991 2.39473C43.5986 2.14129 42.759 2.86024 42.1769 3.18092C41.6 3.49643 37.5615 5.555 38.5351 6.53256C39.5653 7.56701 45.7466 10.6704 48.3221 11.1876H49.3523V12.2221L42.1408 15.3254C42.1408 15.3254 41.1106 17.3943 43.6861 17.3943L47.2919 15.8427C47.2919 15.8427 48.3221 19.4632 48.8372 20.4977C49.3523 21.5322 48.8372 22.0494 48.8372 22.0494C48.8372 22.0494 41.6257 44.8074 56.0487 55.152L56.0332 55.1571Z" fill="white"/>
<path d="M62.7141 18.9046C63.2396 18.6253 63.6671 18.0305 64.0895 17.6167C64.62 17.0995 65.1609 16.5875 65.7121 16.0909C66.2117 15.6461 66.7217 15.2116 67.2522 14.7978C67.6489 14.4875 68.0094 14.0944 68.4782 13.8875C69.1272 13.603 70.0235 13.6496 70.724 13.6858C71.1464 13.7065 71.5946 13.7737 71.9551 14.0065C73.2996 14.8806 72.2694 16.8616 71.7543 17.9219C70.8631 19.7477 69.6114 21.377 68.2515 22.8769C67.5201 23.6838 66.7526 24.4545 65.9696 25.2148C64.9703 26.1769 64.0225 27.2682 62.6729 27.7337C61.6376 28.0906 60.7104 27.6354 59.8244 27.1182C56.7132 25.2976 54.1994 22.5407 52.546 19.3391C52.1081 18.4908 51.7269 17.6064 51.4024 16.7064C51.1294 15.9409 50.5422 14.503 51.0985 13.7272C51.5106 13.1531 52.3811 13.4117 52.922 13.6082C55.0339 14.3737 56.9347 15.9202 58.6809 17.3012C59.1496 17.6736 59.6081 18.0512 60.0665 18.434C60.7258 18.9874 61.8951 19.3288 62.7193 18.8995L62.7141 18.9046Z" fill="black"/>
<path d="M16.3701 64.7258H89" stroke="white" stroke-miterlimit="10"/>
</g>
<defs>
<clipPath id="clip0_44_39">
<rect width="89" height="65" fill="white"/>
</clipPath>
</defs>
</svg>
