<svg width="23" height="20" viewBox="0 0 23 20" fill="none" xmlns="http://www.w3.org/2000/svg">
<path d="M3.94891 12.7737C3.69082 13.6724 3.80582 14.6712 4.36457 15.5116C5.37795 17.0359 7.43246 17.4495 8.95672 16.4361L9.56799 17.3555C7.5366 18.7061 4.79566 18.1543 3.44512 16.1229C2.71828 15.0296 2.54673 13.7308 2.85827 12.5542L1.30603 12.2417L3.75835 10.6113L5.38874 13.0636L3.94891 12.7737Z" fill="black"/>
<path d="M16.6191 7.0269C16.8772 6.12818 16.7622 5.12946 16.2034 4.28904C15.19 2.76477 13.1355 2.35115 11.6113 3.36453L11 2.44509C13.0314 1.09455 15.7723 1.64637 17.1229 3.67776C17.8497 4.77103 18.0213 6.06982 17.7097 7.24647L19.262 7.55897L16.8096 9.18935L15.1793 6.73703L16.6191 7.0269Z" fill="black"/>
<path d="M12 17V10H16.8125V11.4H13.375V12.8H16.125V14.2H13.375V17H12ZM18.1875 17V10H22.3125L23 10.7V13.5L22.3125 14.2H21.7281L23 17H21.5562L20.2672 14.2H19.5625V17H18.1875ZM19.5625 12.8H21.625V11.4H19.5625V12.8Z" fill="black"/>
<path d="M5.71429 4H6.66667V4.3785C6.98936 4.15211 7.36455 4.02199 7.75219 4.00203C8.13982 3.98207 8.52533 4.07302 8.86758 4.26517C9.20982 4.45733 9.49594 4.74346 9.69538 5.09304C9.89483 5.44261 10.0001 5.8425 10 6.25V9H9.04762V6.25C9.04762 5.535 8.48857 5 7.85714 5C7.22571 5 6.66667 5.535 6.66667 6.25V9H5.71429V4ZM4.7619 1V2H0.952381V4.5H4.7619V5.5H0.952381V8H4.7619V9H0V1H4.7619Z" fill="black"/>
</svg>
