<svg width="569" height="74" viewBox="0 0 569 74" fill="none" xmlns="http://www.w3.org/2000/svg">
<path d="M105.3 19.05H114V46.55C114 48.85 113.8 50.6667 113.4 52C113.033 53.3333 112.283 54.4333 111.15 55.3C110.017 56.1333 108.55 56.7 106.75 57C104.95 57.3 102.517 57.45 99.45 57.45C95.55 57.45 92.6167 57.1167 90.65 56.45C88.6833 55.7833 87.3167 54.7 86.55 53.2C85.8167 51.7 85.45 49.4833 85.45 46.55V43.45H93.75V46.55C93.75 48.05 94.1 49.0333 94.8 49.5C95.5333 49.9667 97.1 50.2 99.5 50.2C101.9 50.2 103.467 49.9667 104.2 49.5C104.933 49.0333 105.3 48.05 105.3 46.55V19.05ZM129.696 19.05H139.646L152.196 57H143.646L141.196 49.05H127.746L125.246 57H116.696L129.696 19.05ZM134.596 27.55L129.896 42.3H139.096L134.596 27.55ZM148.235 19.05H158.035L165.635 35.2L173.185 19.05H182.735L169.735 44.15V57H161.235V44.15L148.235 19.05ZM186.152 19.05H193.652V25.05L190.902 32.05H187.002L188.202 26.75H186.152V19.05ZM198.271 44.85H206.621C206.554 45.1833 206.521 45.7667 206.521 46.6C206.521 48 206.971 48.9833 207.871 49.55C208.804 50.1167 210.704 50.4 213.571 50.4C216.038 50.4 217.704 50.0667 218.571 49.4C219.438 48.7333 219.871 47.6667 219.871 46.2C219.871 45 219.688 44.1167 219.321 43.55C218.988 42.95 218.271 42.45 217.171 42.05C216.038 41.55 213.704 40.9833 210.171 40.35C206.671 39.7167 204.171 38.9667 202.671 38.1C201.204 37.2667 200.138 36.1667 199.471 34.8C198.804 33.4 198.471 31.55 198.471 29.25C198.471 27.0167 198.754 25.2 199.321 23.8C199.888 22.4 200.838 21.3167 202.171 20.55C203.504 19.75 205.088 19.2167 206.921 18.95C208.754 18.65 211.121 18.5 214.021 18.5C219.188 18.5 222.804 19.1333 224.871 20.4C226.938 21.6333 227.971 24.15 227.971 27.95C227.971 29.0167 227.921 29.8 227.821 30.3H219.721C219.788 30 219.821 29.5167 219.821 28.85C219.821 27.6833 219.404 26.85 218.571 26.35C217.771 25.8167 216.138 25.55 213.671 25.55C211.104 25.55 209.371 25.8333 208.471 26.4C207.604 26.9667 207.171 27.95 207.171 29.35C207.171 30.6167 207.438 31.5667 207.971 32.2C208.504 32.8333 209.438 33.2833 210.771 33.55C211.271 33.6833 213.154 33.9667 216.421 34.4C219.688 34.8 222.121 35.3333 223.721 36C225.588 36.8 226.871 38.0167 227.571 39.65C228.304 41.25 228.671 43.25 228.671 45.65C228.671 50.25 227.588 53.3667 225.421 55C223.254 56.6333 219.321 57.45 213.621 57.45C207.921 57.45 203.904 56.75 201.571 55.35C199.271 53.95 198.121 51.35 198.121 47.55C198.121 47.15 198.171 46.25 198.271 44.85ZM247.355 19.05H276.055V26.55H266.005V57H257.355V26.55H247.355V19.05ZM280.266 19.05H299.366C303.433 19.05 306.366 19.7833 308.166 21.25C310 22.6833 310.916 25.3833 310.916 29.35V30.6C310.916 33.3667 310.483 35.4 309.616 36.7C308.75 37.9667 307.35 38.7667 305.416 39.1C307.216 39.4333 308.55 40.0667 309.416 41C310.283 41.9333 310.716 43.5667 310.716 45.9V50.05C310.716 52.55 310.95 54.8667 311.416 57H302.916C302.516 55.7 302.316 53.6667 302.316 50.9V46.7C302.316 45.3667 302.083 44.3833 301.616 43.75C301.183 43.0833 300.283 42.75 298.916 42.75H288.666V57H280.266V19.05ZM288.666 26.3V36.15H298.916C300.216 36.15 301.083 35.8 301.516 35.1C301.983 34.4 302.216 33.3167 302.216 31.85V30.3C302.216 28.9333 301.983 27.9333 301.516 27.3C301.05 26.6333 300.2 26.3 298.966 26.3H288.666ZM327.988 19.05H337.938L350.488 57H341.937L339.488 49.05H326.038L323.538 57H314.988L327.988 19.05ZM332.888 27.55L328.188 42.3H337.388L332.888 27.55ZM354.872 19.05H365.922L381.072 44.25V19.05H388.572V57H378.522L362.172 29.75V57H354.872V19.05ZM394.267 44.85H402.617C402.551 45.1833 402.517 45.7667 402.517 46.6C402.517 48 402.967 48.9833 403.867 49.55C404.801 50.1167 406.701 50.4 409.567 50.4C412.034 50.4 413.701 50.0667 414.567 49.4C415.434 48.7333 415.867 47.6667 415.867 46.2C415.867 45 415.684 44.1167 415.317 43.55C414.984 42.95 414.267 42.45 413.167 42.05C412.034 41.55 409.701 40.9833 406.167 40.35C402.667 39.7167 400.167 38.9667 398.667 38.1C397.201 37.2667 396.134 36.1667 395.467 34.8C394.801 33.4 394.467 31.55 394.467 29.25C394.467 27.0167 394.751 25.2 395.317 23.8C395.884 22.4 396.834 21.3167 398.167 20.55C399.501 19.75 401.084 19.2167 402.917 18.95C404.751 18.65 407.117 18.5 410.017 18.5C415.184 18.5 418.801 19.1333 420.867 20.4C422.934 21.6333 423.967 24.15 423.967 27.95C423.967 29.0167 423.917 29.8 423.817 30.3H415.717C415.784 30 415.817 29.5167 415.817 28.85C415.817 27.6833 415.401 26.85 414.567 26.35C413.767 25.8167 412.134 25.55 409.667 25.55C407.101 25.55 405.367 25.8333 404.467 26.4C403.601 26.9667 403.167 27.95 403.167 29.35C403.167 30.6167 403.434 31.5667 403.967 32.2C404.501 32.8333 405.434 33.2833 406.767 33.55C407.267 33.6833 409.151 33.9667 412.417 34.4C415.684 34.8 418.117 35.3333 419.717 36C421.584 36.8 422.867 38.0167 423.567 39.65C424.301 41.25 424.667 43.25 424.667 45.65C424.667 50.25 423.584 53.3667 421.417 55C419.251 56.6333 415.317 57.45 409.617 57.45C403.917 57.45 399.901 56.75 397.567 55.35C395.267 53.95 394.117 51.35 394.117 47.55C394.117 47.15 394.167 46.25 394.267 44.85ZM430.315 19.05H450.415C452.615 19.05 454.365 19.25 455.665 19.65C456.965 20.0167 457.965 20.7167 458.665 21.75C459.399 22.7833 459.882 24 460.115 25.4C460.349 26.8 460.465 28.7 460.465 31.1V33.4C460.465 35.6333 460.349 37.4167 460.115 38.75C459.882 40.05 459.382 41.2167 458.615 42.25C457.882 43.25 456.799 43.95 455.365 44.35C453.965 44.75 452.099 44.95 449.765 44.95H439.065V57H430.315V19.05ZM439.065 26.4V37.75H449.115C450.315 37.75 451.082 37.45 451.415 36.85C451.782 36.25 451.965 35.2333 451.965 33.8V30.85C451.965 29.25 451.782 28.1167 451.415 27.45C451.082 26.75 450.349 26.4 449.215 26.4H439.065ZM481.868 18.5C484.468 18.5 486.651 18.6167 488.418 18.85C490.185 19.0833 491.701 19.5333 492.968 20.2C494.268 20.8667 495.268 21.6333 495.968 22.5C496.701 23.3333 497.268 24.5667 497.668 26.2C498.068 27.8333 498.318 29.5167 498.418 31.25C498.551 32.95 498.618 35.2167 498.618 38.05C498.618 40.8833 498.551 43.1667 498.418 44.9C498.318 46.6 498.068 48.2667 497.668 49.9C497.268 51.5 496.701 52.7167 495.968 53.55C495.268 54.3833 494.268 55.1333 492.968 55.8C491.701 56.4667 490.185 56.9 488.418 57.1C486.651 57.3333 484.468 57.45 481.868 57.45C479.235 57.45 477.035 57.3333 475.268 57.1C473.501 56.9 471.968 56.4667 470.668 55.8C469.401 55.1333 468.418 54.3833 467.718 53.55C467.018 52.7167 466.468 51.4833 466.068 49.85C465.668 48.2167 465.401 46.55 465.268 44.85C465.168 43.15 465.118 40.8833 465.118 38.05C465.118 35.2167 465.168 32.95 465.268 31.25C465.401 29.5167 465.668 27.8333 466.068 26.2C466.468 24.5667 467.018 23.3333 467.718 22.5C468.418 21.6333 469.401 20.8667 470.668 20.2C471.968 19.5333 473.501 19.0833 475.268 18.85C477.035 18.6167 479.235 18.5 481.868 18.5ZM481.868 25.65C480.068 25.65 478.635 25.8 477.568 26.1C476.501 26.3667 475.685 26.8667 475.118 27.6C474.585 28.3333 474.235 29.15 474.068 30.05C473.901 30.95 473.818 32.1833 473.818 33.75V41.6C473.818 43.3333 473.901 44.7 474.068 45.7C474.235 46.6667 474.585 47.55 475.118 48.35C475.685 49.1167 476.501 49.65 477.568 49.95C478.635 50.25 480.068 50.4 481.868 50.4C483.635 50.4 485.051 50.25 486.118 49.95C487.185 49.65 487.985 49.1167 488.518 48.35C489.085 47.55 489.451 46.6667 489.618 45.7C489.785 44.7 489.868 43.3333 489.868 41.6V33.75C489.868 30.6833 489.368 28.5667 488.368 27.4C487.401 26.2333 485.235 25.65 481.868 25.65ZM504.583 19.05H523.683C527.749 19.05 530.683 19.7833 532.483 21.25C534.316 22.6833 535.233 25.3833 535.233 29.35V30.6C535.233 33.3667 534.799 35.4 533.933 36.7C533.066 37.9667 531.666 38.7667 529.733 39.1C531.533 39.4333 532.866 40.0667 533.733 41C534.599 41.9333 535.033 43.5667 535.033 45.9V50.05C535.033 52.55 535.266 54.8667 535.733 57H527.233C526.833 55.7 526.633 53.6667 526.633 50.9V46.7C526.633 45.3667 526.399 44.3833 525.933 43.75C525.499 43.0833 524.599 42.75 523.233 42.75H512.983V57H504.583V19.05ZM512.983 26.3V36.15H523.233C524.533 36.15 525.399 35.8 525.833 35.1C526.299 34.4 526.533 33.3167 526.533 31.85V30.3C526.533 28.9333 526.299 27.9333 525.833 27.3C525.366 26.6333 524.516 26.3 523.283 26.3H512.983ZM538.321 19.05H567.021V26.55H556.971V57H548.321V26.55H538.321V19.05Z" fill="black"/>
<g clip-path="url(#clip0_44_29)">
<path d="M16.3701 64.9845V58.7777H5.55284V57.2261C5.55284 57.2261 53.3701 57.6295 53.4577 57.6295C53.5659 57.6295 53.3804 56.6571 53.3289 56.5588C53.2207 56.3364 52.9632 56.1192 52.8087 55.9278L51.2891 54.0968L48.456 50.6831L48.3015 50.4969H38.5145C36.8713 50.4969 35.1096 50.1556 33.8528 49.0177C33.0131 48.1746 32.395 46.9953 32.3435 45.785C35.0427 45.8315 37.747 45.785 40.4513 45.785C40.7655 45.785 45.7311 45.785 45.7311 45.785C45.7311 45.2522 45.8187 44.9264 45.5199 44.4764C45.3808 44.2695 45.2418 44.0781 45.1336 43.8506C44.8348 43.2506 44.6494 42.5937 44.4897 41.9472C44.0416 40.1472 43.8149 38.2955 43.6295 36.4542C43.3204 33.3922 43.1607 30.2992 43.1607 27.2217C43.1607 25.9079 43.4492 24.5942 44.0673 23.4304C44.3867 22.8356 44.7833 22.2822 45.2418 21.7908C45.4632 21.5529 45.6693 21.4184 45.7363 21.1132C45.7466 21.0667 45.726 20.4977 45.7363 20.4977C44.4691 20.5184 43.2019 20.5443 41.9348 20.565L33.2243 20.7201L23.6279 20.8908L17.1788 21.0046C17.0294 21.0046 16.844 21.0408 16.6946 21.015C16.6482 21.0046 16.571 21.0408 16.5297 21.015C15.3656 20.4253 18.9456 15.6513 19.4452 14.9841C20.7176 13.2876 22.165 11.7255 23.767 10.3394C26.2446 8.19805 29.088 6.47568 32.1375 5.29123C33.0028 4.95503 33.8837 4.64987 34.7851 4.40677C35.4805 4.21539 36.6704 4.23608 37.2112 3.75506C38.5042 2.60682 39.8074 1.46892 41.1055 0.331014C24.0967 -2.25512 14.3096 18.434 14.3096 18.434C14.3096 18.434 13.7945 18.434 11.7341 15.8478C10.2712 14.0065 7.93778 13.2307 5.72798 12.7652C5.40346 12.6979 5.05834 13.2255 4.8523 13.422C4.46597 13.7841 4.07964 14.1358 3.69846 14.5031C3.18335 14.9944 2.42615 15.5789 2.08103 16.2047C1.87499 16.5823 3.13699 16.8254 3.37909 16.9185C3.90965 17.1254 4.40416 17.4254 4.96047 17.565C5.51678 17.7047 6.14006 17.6271 6.71698 17.6271C7.17543 17.6271 7.7781 17.5237 8.22109 17.6426C8.61772 17.7512 9.04011 18.0668 9.40583 18.2581L11.7393 19.4684H3.49242C0.401783 19.4684 0 30.2733 0 30.2733V64.9845H16.3701Z" fill="black"/>
<path d="M58.0473 63.9707C57.7125 63.2518 56.981 63.1535 57.0119 62.238C57.0377 61.4311 57.0634 60.6243 57.0634 59.8174V37.499C57.0634 37.4421 57.0634 36.4077 57.0634 36.4077H65.8202V53.3831C65.8202 55.1003 65.8202 56.8226 65.8202 58.5398C65.8202 59.3984 65.8202 60.257 65.8202 61.1208C65.8202 61.5604 65.8563 62.0208 65.8202 62.4604C65.7996 62.7294 65.4957 63.0294 65.4957 63.2363C65.4957 63.4794 65.0785 63.9242 64.9755 64.1673C64.8982 64.3483 64.8673 64.9948 64.6561 64.9897C63.6207 64.9897 62.5802 64.9897 61.5449 64.9897C60.7825 64.9897 60.0202 64.9897 59.2578 64.9897C59.0002 64.9897 58.7221 65.0207 58.4645 64.9897C57.8722 64.9224 58.2327 64.369 58.0524 63.9759L58.0473 63.9707Z" fill="black"/>
<path d="M56.0332 55.1572V43.7781H56.4917V35.3318H67.0977V43.2609H67.8807V55.1572C67.8807 55.1572 81.7885 35.5025 74.0619 21.5374C74.0619 21.5374 76.1224 17.9168 76.1224 16.3651C76.7044 16.5306 77.2865 16.7013 77.8686 16.8668C78.4352 17.0271 78.9967 17.1926 79.5787 17.2909C79.8723 17.3426 80.1866 17.3995 80.4853 17.3892C80.8819 17.384 81.021 16.8047 81.1086 16.5047C81.1447 16.3703 81.2786 16.0599 81.2528 15.9254C81.191 15.6203 80.6604 15.4341 80.4183 15.2841C80.1608 15.1237 79.9032 14.9582 79.6457 14.7979C79.0173 14.4048 78.3785 14.022 77.7347 13.6548C77.0908 13.2876 76.452 12.941 75.7876 12.641C75.36 12.4497 74.8295 12.1755 74.3453 12.1807C74.3195 12.1807 74.0671 12.1807 74.0671 12.2221V11.1876C75.6124 10.8618 77.1474 10.4377 78.6515 9.95146C79.8208 9.57388 80.985 9.14976 82.0821 8.59632C82.8497 8.2084 83.8026 7.70669 84.225 6.91533C84.5546 6.29983 83.8799 5.58606 83.5244 5.14642C83.1484 4.68091 82.7569 4.23092 82.2882 3.85852C81.7628 3.43439 81.1601 3.10337 80.5111 2.92234C80.1556 2.82406 79.7848 2.77234 79.419 2.76717C79.0945 2.76717 78.6464 2.69476 78.3425 2.82924C77.6625 3.1344 77.1371 4.31885 76.7766 4.92918C76.2202 5.87571 75.7824 6.89982 75.6485 8.00151C75.6124 8.28599 75.6279 8.57046 75.6021 8.85494C75.5764 9.13941 75.5918 9.10838 75.36 9.24286C75.1076 9.38768 74.8397 9.50664 74.5822 9.63595H70.9765C70.9765 9.63595 70.4613 8.6015 71.4916 7.56704C72.5218 6.53259 73.0369 5.49813 72.5218 4.46368C72.0067 3.42922 60.1592 -5.36365 50.3722 4.9809C50.3722 4.9809 49.8571 7.04981 51.9175 7.56704V9.63595C51.9175 9.72388 49.8623 9.76526 49.718 9.76526C49.2441 9.76009 48.729 9.74974 48.2809 9.5894C47.7967 9.41354 47.807 9.01528 47.74 8.57563C47.6679 8.07392 47.5288 7.57221 47.4001 7.08085C47.2455 6.50672 47.0755 5.9326 46.8953 5.36365C46.648 4.58264 45.999 3.88955 45.4427 3.31026C45.113 2.96889 44.7524 2.56028 44.2991 2.39476C43.5986 2.14132 42.759 2.86027 42.1769 3.18095C41.6 3.49646 37.5615 5.55503 38.5351 6.53259C39.5653 7.56704 45.7466 10.6704 48.3221 11.1876H49.3523V12.2221L42.1408 15.3255C42.1408 15.3255 41.1106 17.3944 43.6861 17.3944L47.2919 15.8427C47.2919 15.8427 48.3221 19.4633 48.8372 20.4977C49.3523 21.5322 48.8372 22.0494 48.8372 22.0494C48.8372 22.0494 41.6257 44.8074 56.0487 55.152L56.0332 55.1572Z" fill="black"/>
<path d="M62.7141 18.9047C63.2396 18.6254 63.6671 18.0305 64.0895 17.6168C64.62 17.0995 65.1609 16.5875 65.7121 16.0909C66.2117 15.6461 66.7217 15.2117 67.2522 14.7979C67.6489 14.4875 68.0094 14.0944 68.4782 13.8876C69.1272 13.6031 70.0235 13.6496 70.724 13.6858C71.1464 13.7065 71.5946 13.7738 71.9551 14.0065C73.2996 14.8806 72.2694 16.8616 71.7543 17.9219C70.8631 19.7477 69.6114 21.377 68.2515 22.877C67.5201 23.6838 66.7526 24.4545 65.9696 25.2148C64.9703 26.1769 64.0225 27.2682 62.6729 27.7337C61.6376 28.0906 60.7104 27.6355 59.8244 27.1182C56.7132 25.2976 54.1994 22.5408 52.546 19.3391C52.1081 18.4909 51.7269 17.6064 51.4024 16.7064C51.1294 15.9409 50.5422 14.5031 51.0985 13.7272C51.5106 13.1531 52.3811 13.4117 52.922 13.6082C55.0339 14.3737 56.9347 15.9203 58.6809 17.3013C59.1496 17.6737 59.6081 18.0512 60.0665 18.434C60.7258 18.9874 61.8951 19.3288 62.7193 18.8995L62.7141 18.9047Z" fill="white"/>
<path d="M16.3701 64.7259H89" stroke="black" stroke-miterlimit="10"/>
</g>
<defs>
<clipPath id="clip0_44_29">
<rect width="89" height="65" fill="white"/>
</clipPath>
</defs>
</svg>
