<?xml version="1.0" encoding="UTF-8"?>
<!DOCTYPE svg PUBLIC "-//W3C//DTD SVG 1.1//EN" "http://www.w3.org/Graphics/SVG/1.1/DTD/svg11.dtd">
<!-- Creator: CorelDRAW X7 -->
<svg xmlns="http://www.w3.org/2000/svg" xml:space="preserve" width="88.9mm" height="50.8mm" version="1.1" style="shape-rendering:geometricPrecision; text-rendering:geometricPrecision; image-rendering:optimizeQuality; fill-rule:evenodd; clip-rule:evenodd"
viewBox="0 0 8890 5080"
 xmlns:xlink="http://www.w3.org/1999/xlink">
 <defs>
  <style type="text/css">
   <![CDATA[
    .str2 {stroke:#2B2A29;stroke-width:20}
    .str1 {stroke:#C12C23;stroke-width:20}
    .str0 {stroke:white;stroke-width:20}
    .fil7 {fill:none}
    .fil6 {fill:#FEFEFE}
    .fil4 {fill:#FEFEFE}
    .fil3 {fill:#434242}
    .fil8 {fill:#2B2A29}
    .fil0 {fill:#D7D5D3}
    .fil2 {fill:#1D1D1E}
    .fil5 {fill:white}
    .fil1 {fill:url(#id0)}
   ]]>
  </style>
  <linearGradient id="id0" gradientUnits="userSpaceOnUse" x1="3805.79" y1="2792.02" x2="5018.83" y2="280.08">
   <stop offset="0" style="stop-opacity:1; stop-color:#E31E24"/>
   <stop offset="1" style="stop-opacity:1; stop-color:#F39314"/>
  </linearGradient>
 </defs>
 <g id="Layer_x0020_1">
  <metadata id="CorelCorpID_0Corel-Layer"/>
  <g id="_1180203144">
   <ellipse class="fil0" cx="4483" cy="2891" rx="2154" ry="397"/>
   <path class="fil1 str0" d="M2286 2557l4252 0c-81,-1142 -1002,-2042 -2126,-2042 -1123,0 -2044,900 -2126,2042z"/>
   <path class="fil2" d="M1910 2913c0,3 -2,8 1,11 8,10 31,18 43,24 100,47 237,95 346,114 -1,-5 -2,-9 -5,-14 -14,-5 -31,-7 -45,-10 -18,-4 -36,-9 -53,-14 -98,-28 -198,-61 -287,-111zm-5 -36c-1,4 -2,9 0,13 9,10 37,21 50,26 79,36 160,63 243,86 29,7 59,12 86,20 -1,-5 -3,-11 -6,-16 -101,-22 -203,-51 -298,-93 -26,-11 -51,-22 -75,-36zm-4 -33c0,4 -2,9 1,13 9,11 42,22 55,28 25,10 51,20 76,29 26,10 52,18 78,26 26,9 52,16 78,23 27,7 53,13 80,19 -2,-6 -3,-12 -5,-18 -24,-3 -47,-10 -70,-15 -36,-9 -71,-19 -106,-30 -34,-11 -68,-24 -102,-37 -28,-12 -57,-29 -85,-38zm-3 -35c-1,4 -2,6 0,10 7,13 35,22 48,28 82,35 167,60 254,80 17,4 34,7 51,11 0,-4 0,-10 -3,-13 -2,-2 -5,-3 -8,-4 -11,-3 -23,-5 -34,-7 -27,-6 -53,-13 -79,-20 -83,-23 -152,-46 -229,-85zm1516 -178c-51,7 -91,39 -121,79 -66,87 -97,215 -82,323 8,57 29,123 78,158 21,17 46,23 73,20 51,-8 92,-46 122,-87 65,-92 97,-221 79,-333 -9,-51 -30,-109 -74,-140 -21,-15 -50,-24 -75,-20zm-1567 -135c-8,12 -13,21 -11,36 4,24 20,44 39,58l1 0c5,-5 6,-31 9,-40 -23,-20 -25,-29 -38,-54zm1267 -41c-5,1 -10,2 -15,3 -10,21 -19,43 -30,64 -37,69 -91,137 -166,164 -107,39 -319,25 -435,15 -19,-1 -64,-2 -80,-7 0,-4 2,-6 4,-9 7,-3 85,6 100,7 101,6 204,11 305,2 27,-3 54,-5 80,-12 6,-2 12,-4 19,-6 6,-3 12,-5 18,-8 5,-3 11,-6 17,-9 5,-4 11,-8 16,-11 48,-36 91,-109 118,-163 4,-8 8,-17 11,-26 -50,10 -103,16 -154,20 -24,3 -49,4 -74,7 -49,5 -99,12 -148,21 -149,24 -224,60 -321,179 -10,11 -19,23 -27,36 45,12 108,14 155,17 128,9 258,18 384,-14 27,-7 55,-15 80,-30 9,-5 7,-15 20,-12 10,3 19,7 29,9 32,8 109,24 138,20 -30,-5 -60,-10 -89,-17 -25,-6 -49,-13 -73,-19 47,-42 88,-126 110,-185 4,-9 11,-24 11,-34 0,-1 0,-1 0,-3l-3 1zm290 -29c-77,5 -140,39 -190,97 -43,49 -75,111 -93,173 0,0 1,0 1,-1 12,-19 20,-41 32,-61 52,-84 126,-149 224,-171 30,-7 59,-6 90,-2 56,15 92,42 122,93 42,70 51,151 50,231 0,3 -1,13 2,15 3,-15 2,-32 2,-46 -2,-76 -18,-165 -61,-228 -32,-49 -78,-85 -136,-96 -7,-2 -15,-3 -22,-3 -7,-1 -14,-1 -21,-1zm-1428 -30c-17,1 -30,5 -41,18 -30,36 -40,151 -34,197 2,25 8,50 28,66 53,42 233,89 300,81 26,-4 42,-22 57,-41 3,-4 6,-8 9,-12 23,-29 47,-58 70,-88 15,-20 32,-41 44,-64 6,-10 11,-24 10,-36 -1,-9 -6,-17 -13,-23 -18,-15 -85,-25 -112,-32 -51,-13 -102,-31 -153,-44 -29,-7 -59,-12 -89,-17 -25,-3 -51,-7 -76,-5zm-63 -52c-28,36 -52,91 -46,137 1,12 5,23 10,34 3,4 6,8 9,12 2,-22 4,-45 8,-67 4,-22 21,-99 19,-116zm2612 -35c-5,3 -13,5 -18,9 -20,16 -33,44 -42,67 -33,83 -41,193 -4,276 8,19 20,40 40,47 3,1 6,2 10,2 17,-3 29,-18 38,-31 48,-68 64,-184 50,-264 -6,-30 -13,-53 -30,-78 -5,-8 -10,-16 -17,-21 -8,-6 -17,-8 -27,-7zm-1773 -319c-24,8 -55,22 -72,42 0,8 -1,16 0,24l2 2 2 0c16,-15 63,-49 72,-63l0 -4c-2,0 -3,-1 -4,-1zm348 -161c-28,2 -61,0 -88,9 -14,4 -27,14 -40,21 -78,48 -151,106 -221,166 -24,20 -59,55 -84,70 60,18 122,24 183,35l13 -14c101,-98 215,-188 344,-247 32,-14 66,-26 99,-38 -35,-3 -71,-2 -106,-2 -33,-1 -67,-2 -100,0zm903 -40c-84,7 -151,18 -209,86 -59,70 -163,291 -173,384 -58,9 -115,26 -171,40 -109,28 -217,56 -323,92 -37,12 -73,26 -109,40 -20,8 -41,19 -61,24 13,3 126,-17 147,-22 28,-7 55,-18 82,-27 49,-17 97,-33 146,-49 97,-30 198,-53 297,-75 21,30 38,68 48,104 -38,13 -79,20 -117,32l1 -1 2 2c14,-1 28,-5 41,-8l77 -16c1,18 3,36 4,54 5,96 0,191 -9,285 -3,30 -5,62 -13,90 73,-25 144,-53 216,-80 131,-50 261,-102 388,-159 18,-8 88,-35 95,-50 7,-15 9,-33 13,-49 13,-60 33,-119 57,-175 16,-40 39,-82 48,-124 5,-20 6,-44 -2,-63 -3,-7 -8,-16 -14,-21 32,-4 64,-8 95,-12 16,-3 34,-4 49,-7 4,-1 8,-2 10,-5 -9,-4 -144,9 -162,11 6,-22 -5,-66 -15,-85 -30,-54 -141,-136 -195,-166 -6,-4 -13,-8 -20,-11 -7,-3 -14,-7 -21,-10 -7,-3 -15,-5 -22,-8 -7,-3 -14,-5 -22,-7 -51,-15 -106,-17 -158,-14zm-1564 727c17,-12 33,-24 51,-34 37,-21 78,-37 118,-53 87,-33 174,-59 262,-84 68,-18 136,-37 204,-53 82,-19 164,-36 247,-51 43,-8 86,-16 130,-22 20,-3 41,-7 62,-7 -19,5 -40,7 -60,11l-156 32c-235,49 -543,124 -748,251 81,-14 162,-26 244,-36 27,-4 54,-7 82,-10 17,-1 35,-2 51,-6 22,-5 43,-19 64,-27 54,-22 109,-43 164,-63 73,-26 147,-50 221,-74 48,-15 95,-30 142,-49 18,-7 43,-19 56,-34 19,-22 29,-53 42,-79 44,-92 97,-223 168,-295 45,-46 119,-67 183,-72 26,-2 52,-2 78,-2 -2,-2 -3,-2 -6,-2 -65,-11 -168,9 -227,36 -20,9 -38,21 -56,33 -25,-1 -50,-5 -75,-8 -39,-4 -78,-8 -117,-11 -35,-3 -70,-5 -105,-7 -35,-2 -70,-3 -105,-3 -35,0 -70,0 -104,1 -35,1 -70,2 -105,4 -31,2 -66,2 -96,10 -12,4 -24,11 -35,18 95,-19 214,-14 312,-11 97,2 194,8 291,17 40,3 80,6 120,12 -13,18 -25,37 -37,56 -25,42 -45,87 -67,131 -26,50 -53,99 -78,149 -103,0 -205,-3 -308,-9 -103,-5 -205,-14 -307,-26 -59,-6 -119,-15 -178,-24 -17,-4 -35,-7 -53,-11 -20,-4 -46,-14 -67,-13l-1 2 2 2 -2 -3 1 -1c1,2 2,4 3,5 11,10 57,22 73,26 56,16 113,26 171,35 125,20 251,30 378,35 53,2 107,2 160,4 -3,4 -55,4 -63,4 -111,7 -221,23 -331,39 -149,21 -296,48 -443,80 -70,16 -141,30 -211,47 -66,16 -130,35 -198,43 41,11 81,24 122,34 33,9 66,15 99,24 7,2 15,5 22,9 11,8 14,18 16,30zm2097 -351l1 2c8,21 16,37 31,54 6,8 14,14 20,22l1 2 -1 -2c0,0 0,-1 0,-2 -1,-8 -43,-69 -51,-74l-1 -2zm-2035 -20c-39,7 -78,20 -116,30 -134,38 -272,80 -387,160 -12,8 -27,17 -37,28 21,-9 45,-27 65,-38 33,-19 70,-36 105,-50 72,-29 145,-56 220,-80 34,-12 69,-22 104,-34 15,-5 32,-9 46,-16l0 -1 0 1zm585 952c-3,-3 -7,-8 -11,-8 -13,0 -47,9 -61,12 -26,5 -52,9 -77,14 -36,-50 -83,-124 -138,-153 -14,-7 -30,-11 -45,-14 -41,-7 -83,-7 -125,-10 -84,-4 -167,-10 -251,-17 -37,-4 -76,-5 -112,-13 12,45 33,90 52,133 9,20 21,41 27,62 -133,-26 -266,-64 -389,-124 -16,-8 -45,-19 -55,-34 -13,-20 -18,-111 -20,-140 -1,-10 -2,-22 -4,-31 -3,-9 -15,-11 -22,-17 -14,-15 -39,-43 -47,-62 -11,-26 -7,-127 0,-157 7,-27 19,-40 39,-59 3,-55 28,-116 70,-153 96,-83 432,-166 564,-198 34,-8 67,-16 101,-23 18,-4 38,-7 55,-13 12,-5 21,-12 31,-20 -7,-9 -11,-18 -10,-30 1,-12 9,-22 18,-29 19,-14 65,-35 87,-33l3 6c4,1 10,-4 13,-6 14,-12 28,-24 42,-35 64,-50 134,-101 208,-134 21,-9 42,-16 64,-23 135,-43 276,-54 417,-59 62,-3 125,-4 188,-3 62,1 125,4 187,8 43,3 87,6 129,11 158,18 240,55 363,155l67 55c13,10 25,22 39,31 50,33 85,16 128,71 5,6 14,14 16,22 0,3 -1,5 -4,7 -4,3 -12,5 -14,11 2,11 12,23 17,33 5,8 29,57 28,62 -5,18 -3,38 -3,57 0,35 2,70 0,105 -2,28 -8,60 -18,86 -3,8 -11,16 -13,25 -4,15 -2,44 -4,61 -7,61 -32,164 -88,198 -11,7 -22,11 -34,11 -26,2 -53,-4 -78,-7l-72 -7c-12,-1 -27,-1 -39,-4 -13,-4 -18,-14 -29,-19 17,-5 105,-31 112,-41 6,-8 9,-29 8,-38 0,-2 -2,-5 -3,-7 1,11 -6,25 -13,34 -6,8 -16,13 -26,18 -18,8 -38,15 -57,23l-116 46 -82 33c-15,6 -30,13 -46,17 -20,12 -45,21 -67,29 -25,11 -49,22 -74,32l-279 121c-19,8 -38,14 -57,22 -26,95 -80,199 -169,249 -69,39 -121,26 -192,7l-89 -25c-23,-6 -46,-13 -68,-21 12,-4 47,-12 54,-20 4,-18 3,-39 3,-58 1,-26 2,-53 5,-79 15,-146 75,-358 205,-443 34,-23 78,-35 119,-26 39,8 74,38 95,70 54,83 62,196 47,292 31,-5 63,-23 93,-36l143 -60 400 -166c28,-11 55,-26 83,-37 11,-4 22,-9 33,-11 16,-3 33,-1 47,-7 4,-2 10,-5 12,-8 9,-13 14,-76 18,-95 14,-73 36,-159 88,-214 9,-10 21,-21 35,-24 9,-2 18,0 26,5 26,18 38,58 43,87 3,17 14,71 6,85 11,-9 14,-20 15,-34 2,-49 -10,-128 -45,-166 -9,-11 -22,-17 -36,-17 -20,-1 -37,10 -51,23 -52,51 -75,141 -92,209 -5,17 -8,43 -18,56 -27,37 -43,59 -81,85 -63,43 -160,77 -232,104 -81,32 -163,62 -245,92 -72,26 -146,51 -217,80 13,-94 -5,-212 -63,-289 -29,-38 -69,-67 -117,-74 -50,-7 -99,11 -139,42 -115,87 -185,273 -204,412 -3,27 -13,90 -7,113 1,3 3,6 5,9z"/>
   <path class="fil2" d="M3663 2241l2 0 -2 0zm161 -175c-25,6 -55,24 -74,41 -32,30 -30,40 -79,49 -8,22 -8,43 -7,66 0,6 -1,13 1,18 0,-10 -2,-29 4,-36 18,-17 78,-10 103,-11 26,0 167,-3 179,-15 10,-10 28,-57 27,-72 -6,-10 -34,-18 -46,-21 -31,-10 -76,-21 -108,-19zm585 -9c5,-28 -1,-48 -17,-71 -55,-81 -166,-146 -262,-163 -29,-6 -60,-8 -90,-7 9,11 12,30 17,43 23,73 40,146 56,221 2,8 8,29 6,36 0,1 0,1 0,2 -13,-33 -19,-79 -26,-114 -7,-31 -42,-173 -59,-189 -77,1 -149,12 -206,71 -48,50 -107,174 -131,240 -2,6 -4,13 -6,19 12,-5 27,-11 32,-24 7,-19 7,-41 14,-61 27,-75 87,-175 163,-209 35,-16 75,-21 114,-21 8,9 11,31 14,42 20,77 41,168 39,247 0,3 0,6 -2,9 -12,3 -25,5 -37,7 -15,3 -30,7 -45,10 1,5 0,11 -3,15 -1,1 -2,2 -3,3 100,-22 199,-42 299,-59 29,-5 58,-10 87,-14 15,-2 36,-2 50,-7 11,-10 18,-27 19,-41 1,-26 -18,-50 -34,-68 -11,-12 -23,-25 -38,-31 20,11 49,56 55,78 3,11 2,23 -4,33 0,1 -1,2 -2,3zm-735 90c26,-72 95,-212 145,-269 50,-57 121,-69 192,-73 51,-2 104,0 153,14 14,4 27,8 41,14 13,5 26,12 39,18 56,30 157,101 189,158 9,16 23,64 18,82 -24,6 -62,9 -88,14l-227 43c1,-5 -3,-10 -5,-15 -2,5 2,9 1,14 0,1 0,1 0,2 -16,5 -35,7 -52,9 -24,5 -49,10 -73,13 -9,4 -24,5 -34,7 0,3 -1,5 -3,8 -6,9 -16,17 -26,20 -32,10 -137,6 -177,8 -19,0 -38,4 -57,8 1,7 2,18 -1,25 -3,5 -16,11 -22,13 -6,3 -16,7 -22,5 -2,-6 -1,-15 -1,-21 -6,1 -12,3 -17,5 2,-34 8,-64 15,-97l12 -5z"/>
   <path class="fil2" d="M4152 2111c0,-1 1,-2 1,-3 3,-24 -58,-258 -74,-277 5,-1 10,0 15,0 56,6 109,22 158,49 8,4 21,10 27,17 0,0 1,1 2,2 3,6 48,178 48,183 -9,1 -17,2 -25,3 -15,4 -32,6 -47,8 -35,5 -70,12 -105,18z"/>
   <path class="fil2" d="M4335 2080c6,-16 -34,-152 -41,-174 0,0 1,0 2,1 5,1 10,5 14,8 30,21 63,53 80,86 8,14 16,52 12,67 -4,3 -5,3 -10,4 -12,5 -43,7 -57,8z"/>
   <polygon class="fil2" points="4408,2058 4409,2057 "/>
   <path class="fil2" d="M4359 2517l2 0 -2 0zm1 -7l2 0 -2 0zm1 -6l1 2 -1 -2zm77 -231l3 0 -3 0zm-2 -126c-10,2 -38,6 -43,13 -1,3 -2,5 -1,7 1,2 3,6 5,7 3,1 6,0 8,0 15,-2 35,-3 46,-12 1,-4 2,-6 1,-9 -1,-2 -4,-6 -6,-6 -3,-1 -7,0 -10,0zm12 108l-1 3 -3 3 3 -3 1 0c-1,3 -1,5 -3,7l0 0 -1 0 -2 3 -1 1 1 -1 2 -3 1 0c-1,11 -22,52 -27,65 -6,15 -12,30 -17,45 -10,30 -19,61 -27,92 -5,20 -6,46 -15,64 -1,3 -2,5 -4,6 -14,10 -33,16 -49,23 -56,25 -112,49 -169,72 -156,63 -311,127 -468,186 6,-21 7,-46 10,-67 3,-23 5,-46 7,-68 2,-23 4,-46 5,-69 1,-23 2,-46 2,-68 0,-23 0,-46 -1,-69 -1,-28 -1,-57 -5,-84 44,-12 90,-21 135,-31 79,-17 158,-35 237,-54l65 -16c12,-3 25,-5 36,-10 0,2 1,2 1,3 1,13 -1,26 -1,39 -1,34 -1,68 -4,103 -3,38 -19,178 -38,202 2,-2 5,-4 7,-6 7,-8 11,-27 14,-37 18,-68 23,-139 27,-209 1,-21 2,-44 2,-66 -1,-10 -2,-20 -3,-29 81,-29 166,-46 249,-68l-1 2 -1 -2c-6,-2 -223,42 -250,47 2,-2 2,-4 2,-7 1,-16 -9,-75 -20,-88 38,-4 76,-16 114,-24 67,-13 134,-26 201,-38 6,5 9,14 12,20 17,43 -6,92 -23,131z"/>
   <path class="fil2" d="M3750 2164c-5,-9 -8,-19 -9,-29 -1,-5 -1,-11 2,-15 7,-8 53,-7 64,-7 36,-2 125,-3 158,5 0,0 0,1 0,1 3,13 -9,35 -16,46 -15,3 -31,2 -45,2 -52,0 -103,-1 -154,-3z"/>
   <path class="fil2" d="M4124 2209c-25,7 -51,14 -76,19 3,8 -1,16 3,23 2,1 3,1 5,1 12,-2 70,-13 75,-20 1,-1 1,-1 1,-2 0,0 1,0 1,-1 0,0 0,-1 1,-1 0,-1 0,-1 0,-2 0,-1 0,-1 0,-2 0,0 0,-1 0,-1 0,-1 0,-1 0,-2 0,0 0,-1 0,-1 -1,-4 -2,-7 -5,-10l-5 -1zm-486 70c30,-10 61,-16 92,-24 69,-18 140,-30 210,-44 24,-5 48,-12 72,-17 43,-8 85,-16 127,-26 0,0 1,0 1,0 1,1 2,2 3,3 7,18 21,75 14,92 -29,7 -60,13 -89,20 -77,19 -153,39 -229,59 -51,13 -103,26 -153,43l-7 -24c-10,-29 -26,-55 -41,-82z"/>
   <polygon class="fil2" points="3513,2212 3514,2211 "/>
   <polygon class="fil2" points="4451,2251 4449,2250 "/>
   <polygon class="fil2" points="4449,2255 4450,2254 "/>
   <polygon class="fil2" points="4448,2255 4449,2255 4448,2258 "/>
   <path class="fil2" d="M4539 2314c-3,0 -4,0 -7,-3l6 1 1 2z"/>
   <polygon class="fil2" points="4539,2314 4542,2316 "/>
   <path class="fil2" d="M4523 2457c8,-14 7,-74 9,-95 0,-7 0,-12 6,-17 5,-2 10,-1 15,0l1 1 -1 -1c-2,-5 -3,-7 -8,-8 -7,-3 -16,-3 -24,-3 12,20 3,114 -4,138 -1,3 -2,5 -4,7 1,-8 -4,-14 -4,-23l2 0 4 4c4,-6 -8,-64 -11,-74 -2,-9 -4,-17 -8,-24l-2 0c-3,20 20,87 9,99 -3,1 -4,1 -7,-1 -8,-5 -14,-18 -25,-18 0,3 2,6 4,8 9,13 21,23 30,35 -1,3 -3,6 -5,9 -8,2 -16,3 -23,6 -2,4 2,5 -2,9 -6,1 -12,1 -17,6 0,3 0,4 1,6 13,1 29,-6 41,-2 2,3 3,4 3,8 -7,15 -45,62 -46,71l2 3c8,-2 21,-17 26,-24 5,-7 13,-24 21,-25 0,2 1,4 2,6l-2 0c-8,17 -25,70 -40,75l-4 -2c-1,8 6,14 4,23 1,0 1,-1 1,-1 17,-13 34,-78 40,-81 8,29 -42,105 -10,122 7,4 17,5 24,2 3,0 5,-1 7,-2l-1 2c-6,5 -16,4 -24,4 -2,-2 -1,-1 -3,-2 -9,-7 -17,-15 -22,-24 -40,-67 -40,-166 -21,-240 8,-31 28,-88 58,-105 6,-3 14,-5 21,-2 15,4 26,20 33,32 5,10 19,44 15,55 0,0 0,1 -1,2 -1,-9 -2,-16 -8,-23 0,1 0,2 -1,3 -1,7 -35,53 -40,56 9,-19 21,-58 24,-77 6,5 14,14 16,21 2,-11 -3,-25 -10,-34 -3,-3 -3,-5 -8,-5 -17,11 -15,82 -33,100z"/>
   <path class="fil2" d="M4544 2488c-2,2 -3,2 -6,4l-2 -2c0,-4 -1,-11 1,-15 1,-2 8,-6 10,-8 11,-10 30,-27 35,-41l3 1c2,5 6,37 5,43l-4 -5c-15,5 -26,19 -42,23z"/>
   <path class="fil2" d="M1937 2610c11,29 33,43 59,56 52,24 196,59 250,42l0 -1c-17,-3 -36,-3 -53,-5 -58,-9 -185,-33 -231,-66 -10,-8 -16,-18 -25,-26zm6 -46c-2,12 0,18 7,28 40,50 178,73 239,79 29,3 61,8 89,5l-1 0c-31,-8 -65,-11 -96,-16 -48,-9 -208,-43 -232,-82 -3,-4 -4,-10 -6,-14zm5 -36l-4 19c59,69 240,88 327,95 10,1 20,2 30,2 -6,-6 -67,-15 -79,-17 -79,-14 -165,-27 -238,-63 -10,-6 -24,-12 -31,-21 -4,-4 -3,-10 -5,-15zm5 -35c-2,7 -3,13 -4,20 57,59 281,93 366,94 4,0 7,0 11,0 -6,-4 -54,-9 -65,-11 -62,-11 -264,-50 -303,-89l-5 -14zm7 -32c-2,6 -4,11 -3,17 12,21 88,46 112,52 81,22 197,40 281,44l0 -1 -2 -1 2 1c0,0 -1,0 -2,-1 -10,-4 -48,-8 -62,-11 -57,-11 -304,-55 -324,-95 -1,-2 -1,-3 -2,-5zm5 -19c0,2 -1,8 0,10 4,6 19,10 26,13 76,28 157,41 237,55 43,7 87,16 131,19 -8,-5 -103,-23 -118,-27 -51,-10 -101,-22 -151,-34 -42,-10 -86,-18 -125,-36zm332 230c-17,23 -38,54 -69,58 -60,10 -231,-42 -282,-80 -18,-13 -27,-31 -30,-54 -6,-40 6,-135 30,-167 15,0 30,5 44,7 103,18 205,40 306,66 24,6 63,12 83,25 3,2 7,4 8,8 1,10 -4,22 -9,31 -10,17 -24,33 -36,49 -15,19 -30,38 -45,57z"/>
   <polygon class="fil2" points="4546,2449 4547,2447 "/>
   <polygon class="fil2" points="4544,2451 4546,2449 "/>
   <polygon class="fil2" points="4543,2453 4544,2451 "/>
   <polygon class="fil2" points="4534,2456 4535,2453 "/>
   <polygon class="fil2" points="4542,2455 4543,2453 "/>
   <path class="fil2" d="M4538 2459l4 -4c-1,2 -2,2 -4,4z"/>
   <path class="fil2" d="M4534 2467l-1 2c-1,1 -3,2 -4,2 0,-6 2,-10 5,-15 0,4 0,7 -1,11l1 1 0 -1z"/>
   <path class="fil2" d="M4535 2463l3 -4c-1,2 -1,2 -3,4z"/>
   <polygon class="fil2" points="4534,2467 4535,2463 "/>
   <polygon class="fil3" points="4590,2474 4588,2472 "/>
   <path class="fil2" d="M4522 2505c2,-2 4,-3 7,-5 0,-4 -1,-5 -3,-9 -1,-1 -1,-1 -1,-2 -3,-3 -4,-6 -8,-8 2,0 4,0 6,1 2,-3 3,-6 4,-9 1,3 1,7 1,10 1,1 2,1 3,1l-1 1 1 -1c2,10 4,40 -2,48 0,1 -1,1 -2,2 1,-5 3,-11 3,-16 0,-3 0,-6 -2,-8 0,7 1,15 -4,21 -2,-3 2,-16 -2,-25l0 -1z"/>
   <path class="fil2" d="M4559 2527c-5,-6 -15,-8 -22,-11 -2,-3 -2,-4 -2,-7 5,-9 25,-13 34,-16 6,-3 18,-8 20,-15l2 2c-1,16 0,58 -4,71 -6,-12 -16,-19 -28,-24z"/>
   <path class="fil2" d="M2706 2545c-31,3 -67,9 -97,17 -43,12 -109,44 -137,80 -3,3 -5,7 -7,11 1,4 1,4 5,6 1,0 1,0 2,0 54,5 147,12 198,3 10,-27 15,-55 24,-82 3,-11 11,-23 13,-34l-1 -1zm101 -12c-17,3 -32,10 -43,24 -1,1 -1,2 -2,3 0,1 -1,2 -1,2 -1,1 -1,2 -2,3 0,1 0,2 -1,3 0,0 -1,1 -1,2 0,1 -1,2 -1,3 0,1 0,2 -1,3 0,1 0,2 0,3 -1,1 -1,2 -1,3 0,0 0,1 0,2 -1,1 -1,2 -1,3 0,1 0,2 0,3 0,1 0,2 0,3 0,1 0,2 0,3 0,1 0,2 0,3 1,1 1,2 1,3 3,17 14,34 28,44 13,9 27,13 43,13 16,-3 30,-8 40,-22 10,-14 14,-33 11,-50 0,-1 0,-2 0,-3 -1,-1 -1,-2 -1,-3 -1,-2 -1,-3 -1,-4 -1,-1 -1,-2 -1,-3 -1,-1 -1,-2 -2,-3 0,-1 0,-2 -1,-3 0,-1 -1,-2 -1,-3 -1,-1 -2,-2 -2,-2 -1,-1 -1,-2 -2,-3 -1,-1 -1,-2 -2,-3 -1,-1 -1,-2 -2,-2 -1,-1 -1,-2 -2,-3 -1,-1 -2,-1 -3,-2 0,-1 -1,-2 -2,-2 -1,-1 -2,-2 -3,-2 0,-1 -1,-2 -2,-2 -12,-9 -27,-12 -42,-11zm194 -15c-44,9 -88,19 -133,19 17,17 27,35 27,59 0,11 -2,21 -5,31 -1,5 -3,10 -4,15 53,-25 91,-71 120,-121l0 -3c-2,0 -4,0 -5,0zm-599 157c17,-22 39,-42 60,-59 104,-85 209,-84 336,-98 76,-8 151,-18 225,-30 1,0 2,0 3,0 3,-1 9,1 12,3 3,2 4,5 4,8 2,21 -35,70 -49,87 -41,53 -83,85 -152,93 -33,4 -67,2 -94,-20 -2,0 -3,-1 -4,-2 -1,-1 -2,-2 -3,-3 0,-1 -1,-2 -2,-3 -1,-1 -2,-2 -3,-3 -1,-1 -2,-2 -2,-3 -1,-1 -2,-2 -3,-3 -1,-2 -1,-3 -2,-4 -1,-1 -1,-2 -2,-3 -1,-2 -1,-3 -2,-4 0,-1 -1,-2 -2,-4 0,-1 -1,-2 -1,-3 0,-2 -1,-3 -1,-4 -1,-2 -1,-3 -1,-4 -1,-1 -1,-3 -1,-4 -1,-1 -1,-3 -1,-4 0,-1 0,-3 -1,-4 -3,-31 11,-52 30,-75 -5,2 -9,4 -13,7 -15,11 -24,31 -26,49 -3,25 4,48 19,67 19,23 42,32 70,35 -36,5 -73,4 -109,5 -58,-1 -116,-3 -173,-7 -37,-2 -75,-5 -112,-10z"/>
   <path class="fil2" d="M4522 2505c-5,0 -8,0 -12,2 -2,6 3,11 2,17l-2 0c-2,-3 -4,-7 -6,-10 0,-1 1,-2 1,-2 3,-8 -1,-16 6,-22 5,3 8,10 11,15z"/>
   <path class="fil2" d="M4519 2524c2,-6 0,-12 3,-18 0,2 0,4 0,6 1,5 0,7 -3,12z"/>
   <path class="fil2" d="M4515 2523l-1 0 1 -7 2 -1c1,4 0,5 -2,8z"/>
   <polygon class="fil2" points="4511,2527 4510,2525 "/>
   <polygon class="fil2" points="4518,2530 4518,2525 "/>
   <polygon class="fil2" points="4511,2527 4512,2528 "/>
   <path class="fil2" d="M4543 2557c0,-4 -3,-6 -4,-9 -1,-2 -2,-3 -3,-5 -2,-4 -5,-10 -3,-14l2 -1c18,5 33,29 45,42 1,1 1,1 1,2 3,8 -9,26 -9,35 0,2 -1,3 -3,4 -2,-15 -15,-45 -26,-54z"/>
   <polygon class="fil2" points="4515,2534 4518,2530 4518,2532 "/>
   <polygon class="fil2" points="4526,2535 4527,2534 "/>
   <path class="fil2" d="M4526 2545c0,2 -1,2 -2,4l-3 0c-4,-2 -7,-3 -10,-7 0,0 1,0 1,0 4,2 5,2 10,2 1,-2 2,-2 4,-2l0 3z"/>
   <path class="fil2" d="M4527 2548c7,7 27,57 37,73 4,16 -22,25 -26,41l-2 10c-1,-15 2,-60 -5,-72 2,-4 -3,-47 -4,-52z"/>
   <polygon class="fil2" points="4514,2564 4514,2566 4512,2558 4516,2557 4518,2559 "/>
   <polygon class="fil2" points="4508,2558 4509,2561 "/>
   <path class="fil2" d="M4522 2624c3,-20 -3,-42 -3,-62 1,1 2,2 3,3 1,11 6,52 0,59z"/>
   <path class="fil2" d="M4512 2685c-1,0 -3,0 -5,0 -5,0 -8,0 -12,-4 1,-14 5,-29 8,-43 4,-23 7,-46 10,-69l1 1c4,4 3,19 4,26 1,15 3,30 6,46 2,9 8,23 8,33 0,3 -1,5 -3,7 -4,4 -11,3 -17,3z"/>
   <polygon class="fil2" points="4581,2572 4583,2569 "/>
   <polygon class="fil2" points="4566,2618 4567,2615 "/>
   <polygon class="fil2" points="4564,2621 4566,2618 "/>
   <path class="fil2" d="M3407 2859c13,-60 22,-118 17,-180 0,-6 0,-19 -3,-24 0,-1 -1,-1 -2,-2 -2,0 -2,-1 -4,1 -3,2 -4,5 -4,8 0,17 2,35 2,52 0,14 -1,27 -2,40 -1,14 -3,27 -4,40 -2,13 -4,27 -7,40 -2,13 -5,26 -9,39l0 -2c-2,-17 -2,-34 -3,-50 -1,-5 -1,-9 -2,-14 -1,-4 -1,-9 -2,-13 -1,-5 -2,-9 -3,-13 -1,-5 -2,-9 -3,-13 -1,-5 -3,-9 -4,-13 -2,-4 -3,-9 -5,-13 -1,-4 -3,-8 -5,-12 -1,-5 -3,-9 -5,-13 -4,-7 -8,-18 -15,-24 -1,-1 -3,-1 -5,-2 -3,1 -4,3 -7,5 1,7 16,35 19,44 9,23 29,112 23,134l-2 0c-6,-12 -9,-27 -16,-40 -4,-9 -10,-17 -15,-25 -8,-10 -42,-49 -53,-51 0,-1 -1,-1 -1,-1 -5,4 -6,9 -9,14 10,11 20,21 30,33 24,28 46,61 56,97 -32,-30 -88,-31 -130,-33 -1,8 -2,16 -3,24 24,1 107,13 124,24 0,2 1,2 -1,4 -11,16 -109,55 -134,62l0 20c58,-12 92,-27 138,-66 -26,54 -75,112 -117,154 2,6 5,12 6,17 -15,-17 -26,-81 -28,-105 -1,-17 0,-34 1,-51 6,-84 32,-173 87,-238 27,-32 64,-60 107,-63 25,-2 46,7 64,23 -13,34 -28,68 -41,103 -10,26 -16,58 -30,83z"/>
   <path class="fil2" d="M3429 2852c-3,4 -6,7 -9,11 -3,2 -5,5 -8,5 2,-9 11,-21 15,-29 25,-47 60,-100 60,-155 17,13 28,38 36,57 -36,33 -65,73 -94,111z"/>
   <polygon class="fil2" points="4528,2694 4530,2693 "/>
   <path class="fil2" d="M1833 2826c-12,-39 -21,-81 -25,-122 6,8 9,17 15,25 8,11 20,19 29,29 19,19 22,100 22,129 -12,-16 -21,-34 -31,-51 -10,21 -23,40 -31,62 19,35 64,63 98,83 53,30 111,53 169,74 196,71 403,105 611,119 63,5 129,10 192,5 71,-5 141,-26 209,-44l19 -5c0,15 0,31 -2,46 -3,1 -6,2 -10,4 -21,7 -42,13 -63,18 -56,16 -111,28 -169,31 -79,5 -162,-5 -242,-15 -158,-20 -314,-48 -466,-96 -56,-18 -111,-37 -164,-62 -63,-30 -176,-88 -201,-158 14,-23 28,-47 40,-72z"/>
   <path class="fil2" d="M3435 2880c-3,2 -9,6 -13,5 1,-4 2,-6 4,-9 22,-25 49,-46 70,-73 6,-7 12,-15 17,-23 5,-7 9,-16 13,-24 12,25 14,60 15,88 -35,11 -71,22 -106,36z"/>
   <polygon class="fil2" points="3406,2860 3407,2859 "/>
   <path class="fil2" d="M3470 2926c-11,-6 -43,-14 -48,-21 3,-7 17,-7 24,-8 4,-1 8,-2 12,-3 4,0 8,-1 12,-2 5,-1 9,-2 13,-4 4,-1 8,-2 12,-3 3,-2 7,-3 11,-5 4,-1 8,-3 12,-5 4,-2 7,-3 11,-5 4,-2 7,-4 11,-6l0 0c6,15 -10,89 -15,109 -16,-20 -32,-36 -55,-47z"/>
   <path class="fil2" d="M3393 2888c-11,7 -16,17 -19,30 -2,9 -2,19 3,27 2,4 6,6 11,7 11,-7 15,-16 17,-29 2,-9 3,-22 -1,-29 -3,-4 -5,-6 -9,-6 0,0 -1,0 -2,0zm-19 74c-2,-2 -4,-4 -5,-6 -7,-9 -10,-21 -8,-33 3,-19 16,-39 32,-51 3,0 7,0 10,1 6,2 11,7 13,12 7,14 4,33 -2,46 -5,13 -13,26 -26,31 -5,1 -10,0 -14,0z"/>
   <path class="fil2" d="M2386 3104c18,-11 41,-17 61,-24 -19,-30 -41,-59 -62,-89 -12,-18 -23,-39 -38,-55 -12,-2 -56,-5 -62,-12l-1 -4 2 -2c87,13 174,20 261,25 44,3 89,9 133,7 -19,17 -36,36 -38,62 -1,22 9,45 24,61 9,9 19,17 31,22 29,12 58,14 88,1 20,-9 36,-24 44,-45 7,-18 7,-34 2,-52 37,35 67,76 96,118 -109,10 -239,-2 -349,-15 -22,-3 -44,-6 -66,-9 -19,-3 -40,-9 -59,-7 -22,1 -45,13 -67,18z"/>
   <path class="fil2" d="M3489 3062c-13,-34 -32,-68 -52,-98 -6,-9 -15,-16 -20,-25 -2,-4 0,-8 1,-12 35,18 68,41 103,59 -5,19 -13,36 -21,54 -3,7 -7,15 -11,22z"/>
   <path class="fil2" d="M2746 2965c-15,5 -28,13 -35,28 -6,13 -6,28 -1,41 1,1 1,2 1,3 1,1 1,2 2,3 0,1 1,1 1,2 1,1 1,2 2,3 0,1 1,2 1,2 1,1 1,2 2,3 1,1 1,1 2,2 1,1 1,2 2,2 1,1 1,2 2,2 1,1 2,2 2,2 1,1 2,2 3,2 0,1 1,2 2,2 1,1 2,1 3,2 0,0 1,1 2,1 1,1 2,1 3,2 1,0 2,1 2,1 13,6 25,5 38,4 15,-5 27,-12 34,-26 6,-12 6,-26 1,-39 -6,-16 -19,-29 -35,-37 -1,0 -3,-1 -4,-1 -1,-1 -3,-1 -4,-2 -2,0 -3,0 -4,-1 -2,0 -3,0 -5,-1 -1,0 -2,0 -4,0 -1,0 -3,0 -4,0 -2,0 -3,0 -5,0 -1,0 -2,0 -4,0zm34 123c-19,7 -38,10 -58,5 -2,0 -3,0 -5,-1 -1,0 -3,-1 -4,-1 -2,-1 -3,-1 -5,-2 -1,0 -2,-1 -4,-1 -1,-1 -3,-2 -4,-2 -1,-1 -3,-2 -4,-3 -1,0 -3,-1 -4,-2 -1,-1 -3,-2 -4,-3 -1,0 -3,-1 -4,-2 -1,-1 -2,-2 -3,-3 -2,-1 -3,-2 -4,-3 -1,-2 -2,-3 -3,-4 -1,-1 -2,-2 -3,-3 -1,-1 -2,-3 -3,-4 -1,-1 -2,-2 -3,-4 -1,-1 -2,-2 -2,-3 -10,-16 -15,-33 -11,-51 5,-21 21,-37 39,-48 0,0 1,0 2,0 40,-2 99,14 129,39 3,16 5,32 0,48 -6,23 -22,37 -42,48z"/>
   <path class="fil2" d="M3433 3135c-3,-37 -7,-76 -16,-113 -4,-21 -17,-45 -18,-66 17,8 59,96 84,116 -9,14 -18,27 -28,39 -7,9 -14,17 -22,24z"/>
   <path class="fil2" d="M3250 3111c12,-16 27,-30 40,-46 30,-34 52,-69 72,-109 -3,13 -4,27 -9,40 -10,36 -26,71 -43,105 -10,18 -20,36 -27,55 -12,-12 -29,-29 -33,-45z"/>
   <path class="fil2" d="M3290 3164c32,-34 61,-101 72,-146 4,-18 4,-37 11,-54 3,15 1,33 1,48 -2,60 -10,114 -33,170 -14,-2 -25,-6 -37,-11 -5,-2 -9,-5 -14,-7z"/>
   <path class="fil2" d="M3355 3179c17,-40 34,-105 36,-149 1,-21 -1,-43 -4,-64 9,7 37,155 40,176 -12,11 -25,20 -40,28 -10,5 -21,7 -32,9z"/>
   <polygon class="fil2" points="3086,3097 3086,3097 "/>
   <path class="fil2" d="M3086 3097c3,2 4,3 5,6 -3,-1 -3,-3 -5,-6z"/>
   <polygon class="fil2" points="2384,3104 2386,3104 "/>
   <path class="fil2" d="M3091 3103c3,3 6,5 8,10 -4,-3 -6,-6 -8,-10z"/>
   <polygon class="fil2" points="3247,3107 3249,3110 "/>
   <polygon class="fil2" points="3249,3110 3250,3111 "/>
   <polygon class="fil2" points="3099,3113 3099,3114 "/>
   <path class="fil2" d="M3099 3114c3,2 4,3 5,6 -3,-2 -3,-3 -5,-6z"/>
   <polygon class="fil2" points="3104,3120 3105,3121 "/>
   <polygon class="fil2" points="3105,3121 3107,3123 "/>
   <polygon class="fil2" points="3107,3123 3108,3123 "/>
   <path class="fil2" d="M6575 3112c15,1 38,35 38,38 1,3 0,3 0,4 -17,5 -25,0 -32,-11 -7,-11 -12,-19 -6,-31zm-141 -67c13,2 37,27 60,41 13,7 22,10 35,16 7,4 26,18 15,30 -12,13 -78,-45 -90,-57 -6,-5 -22,-19 -20,-30zm180 46c51,-19 30,10 102,-40 10,-6 19,-15 34,-12 0,13 -17,35 -24,45 -23,33 -23,13 -47,25 -15,9 -13,40 -39,28 -9,-5 -28,-29 -26,-46zm-158 -96c10,-2 25,20 24,30 -11,-2 -22,-21 -24,-30zm266 26l-3 -34c9,-7 21,-11 31,-17 42,-21 24,37 13,45 -9,8 -28,7 -41,6zm-317 -4c-7,-2 -6,0 -10,-8 -31,-56 29,-48 10,8zm71 -42c13,0 16,7 17,20 -11,1 -17,-9 -17,-20zm-806 -22c17,0 34,2 51,1 17,0 29,-6 44,-7l0 16c-15,5 -34,3 -51,3l-36 -5c-13,-6 -3,-3 -8,-8zm856 -15c6,6 19,23 21,30 -13,7 -54,-3 -47,-15 3,-7 2,-2 10,-3 15,-3 6,-6 16,-12zm191 10c-5,-19 3,-18 6,-20 6,9 6,21 -6,20zm-30 -19l9 -1c4,9 8,23 -3,29 -11,-5 -9,-19 -6,-28zm-851 4c5,-5 14,-7 22,-9 0,-5 29,-2 34,-1 14,2 23,7 33,-1 8,-7 11,-17 24,-19 13,-2 19,9 22,19 17,50 -75,47 -113,41 -9,-1 -5,1 -9,-3 -42,7 -69,-27 -51,-49 6,5 8,16 13,21 7,10 14,3 25,1zm-665 6c2,-8 -4,-3 5,-7 0,0 8,-3 9,-3 10,-3 11,-3 23,-3 -2,20 -30,15 -37,13zm1259 -11c8,-5 15,0 21,5 7,5 12,8 10,21 -9,-1 -12,-6 -18,-11 -8,-7 -9,-5 -13,-15zm-105 -57c16,21 -7,106 47,194 14,23 38,47 58,62 52,40 119,62 188,53 27,-4 66,-26 84,-39 24,-18 37,-36 53,-67 7,-12 14,-26 20,-40l11 -35c4,-11 -1,-7 9,-7 13,17 -22,78 -30,92 -51,94 -154,139 -259,102 -63,-23 -115,-67 -145,-112 -19,-29 -29,-52 -36,-91 -5,-24 -19,-99 0,-112zm-147 53c1,-8 3,-9 21,-13 9,-2 24,-5 32,-1 -2,6 -1,6 -8,9 -11,5 -33,11 -45,5zm-736 -16c-5,-20 42,-3 49,-1 12,5 42,13 43,25 3,26 -91,-19 -92,-24zm823 0c-7,-11 -6,-26 -5,-39 1,-19 1,-32 13,-35 2,6 2,16 4,23 3,11 7,10 10,18 7,17 -8,33 -22,33zm-677 6c27,-3 38,8 65,-7 17,-9 15,-29 41,-27l9 3c2,13 -76,55 -91,57 -16,2 -26,-12 -24,-26zm1021 -41c20,3 27,35 24,58 -2,17 -7,14 -2,34 4,12 3,21 -3,30 -5,7 -14,12 -23,18 -33,19 -26,43 -68,24 -9,-5 -8,-3 -11,-11l36 2 3 -21c37,-7 58,-1 52,-46 -3,-20 2,-32 2,-48 0,-18 -13,-26 -10,-40zm-439 14c4,-7 5,-6 25,-10 10,-2 21,-6 32,-3 -2,15 -50,18 -57,13zm-1136 -21c20,4 47,90 108,103 49,10 87,-13 110,-47 13,-18 7,-21 6,-41l24 6c-1,30 -32,56 -45,71 -38,42 -115,41 -161,-15 -10,-12 -41,-56 -42,-77zm1675 -12c7,4 8,7 9,15 2,11 0,14 -10,16 -4,-9 -11,-22 1,-31zm-835 12c10,-12 66,-9 72,3 -7,6 -24,5 -37,5l-28 -3c-6,-2 -4,-1 -7,-5zm-787 -5c25,-10 39,12 54,17 17,5 56,-5 68,5 -4,18 -56,15 -71,12 -6,-2 -59,-17 -51,-34zm472 -9c14,-3 19,10 15,23 -11,1 -17,-8 -17,-14 -2,-12 1,-7 2,-9zm-104 -9c18,2 18,13 47,35 8,6 12,4 13,14 -13,6 -40,-20 -48,-30 -7,-7 -11,-8 -12,-19zm-249 6c20,-8 124,11 155,17 14,2 41,2 46,14 -10,7 -34,-4 -47,-6 -30,-5 -144,-12 -154,-25zm1330 -38l0 12 -11 -1c0,-9 3,-10 11,-11zm-1346 -3c15,-8 40,-3 57,-7 22,-5 1,-15 53,-11 29,3 82,14 97,30 -7,6 -15,2 -29,6l2 20c-36,-1 -105,-13 -145,-20 -15,-3 -36,-2 -35,-18zm598 -15l20 1c30,1 61,5 91,8 24,2 72,4 49,39 -32,6 -19,-22 -42,-25 -15,5 -12,25 -43,22 -26,-2 -18,-23 -35,-32 -13,4 -13,15 -21,25 -30,4 -33,-11 -45,-27 -20,-1 -17,7 -31,8 -5,-5 -10,-8 -9,-19l66 0zm-261 -27c9,5 11,16 16,24 5,9 12,16 21,21l41 22c8,4 8,2 10,10 -20,-1 -45,-13 -60,-23 -19,-11 -34,-24 -28,-54zm1192 8c16,10 82,134 50,159 -8,-8 -8,-28 -10,-42 -7,-43 -50,-103 -40,-117zm-1932 7c13,-9 163,22 188,26l178 28c9,4 5,-2 7,8 -1,1 -2,0 -2,1 -1,3 -18,1 -21,0 -97,-12 -236,-34 -331,-55 -10,-2 -15,-2 -19,-8zm624 -46c15,5 15,36 13,42l-33 2c-3,-22 2,-9 20,-44zm262 60c5,3 33,21 36,27 9,3 26,11 28,18 -29,11 -94,-14 -118,-24 -43,-18 -68,-27 -67,-84 70,0 84,-1 105,35 3,5 15,26 16,28zm-195 -19c-14,-5 -14,-15 -6,-27 11,-2 12,0 19,5 0,10 -6,18 -13,22zm493 -100c7,12 7,81 9,101 2,20 14,84 4,98 -5,-1 -7,4 -10,-18 -1,-9 -2,-17 -3,-25 -1,-18 -1,-35 -3,-53 -2,-16 -3,-35 -4,-51l2 -41c2,-12 5,-10 5,-11zm-751 68c7,-17 39,-13 62,-12 18,1 50,5 62,14 -4,27 -46,2 -62,3 -10,1 -24,6 -34,7 -21,4 -24,-1 -28,-12zm728 22c-13,7 -15,3 -26,-3 -12,-6 -17,0 -30,1 -22,3 -47,-2 -69,-3 -23,-2 -45,-4 -68,-7 -18,-3 -48,-6 -64,-9 2,-10 -1,-11 28,-11 12,0 23,1 35,2 61,4 110,5 173,12 14,2 25,2 21,18zm-1047 -32c19,-8 123,12 137,23 -21,7 -94,-10 -124,-16 -11,-2 -10,0 -13,-7zm-170 1c-1,-29 35,-1 91,11 91,19 190,35 284,44 14,1 54,-1 59,8 14,27 -91,4 -103,2 -39,-6 -78,-11 -117,-16 -38,-5 -75,-12 -114,-18 -23,-3 -99,-11 -100,-31zm1458 -29c2,-3 1,-2 3,-5 4,-4 2,-1 5,-3 -2,-8 -2,-3 1,-7 13,1 10,7 18,6 7,0 9,-7 14,-11 7,4 23,22 29,32 10,16 16,22 8,42 -5,14 -9,30 -15,44 -8,19 -15,26 -23,40 -48,10 -27,7 -51,0 -6,10 -1,12 -12,17 -22,-17 -2,-49 9,-64 17,-2 15,-1 31,-5 10,-11 12,-13 11,-35 -8,-34 -29,-25 -33,-20 -7,7 1,7 -9,11 -12,-15 -2,-39 14,-42zm-1157 12c25,-18 95,14 94,27 -21,8 -91,-3 -94,-27zm1539 12l0 25c-12,-1 -12,-1 -13,-13 0,-22 10,-49 35,-31 0,3 1,5 0,7 -2,12 -5,3 -22,12zm100 -20c14,1 38,20 42,31 -15,9 -13,-14 -23,25 -3,12 -6,32 -13,42 -5,-2 -23,-13 -30,-17 -5,-66 12,-52 31,-61 3,-15 -7,-7 -7,-20zm-836 -19c56,-7 38,19 62,27 10,-4 15,-15 21,-18 2,-2 27,-9 31,7 6,31 -35,26 -57,24 -51,-5 -101,-8 -152,-12 -22,-2 -59,-1 -48,-32 3,-8 19,-17 29,-8 8,7 3,22 16,26 17,6 18,-7 24,-14 7,-7 25,-7 32,-1 9,8 7,20 21,20 15,1 13,-11 21,-19zm249 203c5,3 8,6 16,7 16,-3 15,-9 29,-14 8,9 16,33 24,46 7,12 23,31 25,45 -20,0 -54,-12 -78,-16 -16,-2 -28,-2 -43,-3 -18,-2 -18,-11 -26,-22l-29 -4c-3,-12 3,-19 11,-24 8,-6 13,-11 21,-16 0,-29 -14,-26 -18,-47 9,-11 17,-14 32,-19 -1,-18 -13,-23 -21,-32 -8,-9 -12,-30 0,-40 7,-6 26,-15 15,-31 -8,-9 -25,-14 -30,-26 10,-6 91,-3 104,7 -7,20 -45,15 -42,62 1,13 4,31 11,41 10,12 25,9 35,19 -5,16 -33,11 -40,26 -6,13 1,30 4,41zm-1350 -222c34,-3 105,10 141,16 20,3 86,16 104,9 8,-3 20,-12 28,-9 1,7 -11,15 -19,18 -26,10 -91,1 -116,-3l-125 -21c-16,-4 -11,-6 -13,-10zm1527 -9c39,-14 54,12 32,40 -13,-2 -33,-25 -32,-40zm-1027 -26c9,-8 47,-16 63,-18 30,0 38,10 49,33 9,16 20,44 16,66 -15,1 -15,-2 -18,-15 -4,-11 -4,-16 -10,-26l-15 0c-1,9 -2,19 -7,25 -15,6 -73,0 -86,-6 -8,-5 -11,-48 -30,-17 -5,9 -4,11 -12,14 -13,-37 23,-51 50,-56zm1215 14c7,-3 4,-3 11,0l0 9c-10,1 -14,-1 -11,-9zm-707 -2c2,-4 -3,-6 21,-7 34,-3 147,-1 178,7 10,3 6,0 10,7 -3,4 0,6 -21,7l-177 -8c-17,-2 -8,-3 -11,-6zm-71 83c-17,-5 -12,-23 -43,-26 -20,-3 -48,-2 -64,-8 1,-11 4,-12 11,-17 18,-14 117,-93 125,-44 -21,14 -42,-8 -38,32 2,19 10,45 9,63zm843 -109c-11,7 -48,10 -64,10 -14,0 -15,2 -16,-10 5,-2 39,-6 49,-9 -3,-11 -12,-31 9,-14 10,8 15,17 22,23zm-890 -9l-9 -8c-7,2 -2,-2 -6,5l-1 12c-12,5 -12,0 -21,10 -27,29 -28,22 -54,43 -17,13 -12,23 -38,24 -19,0 -46,2 -61,-4 -9,-15 1,-38 11,-48 9,-10 28,-19 40,-27l66 -36c14,-6 14,-3 27,-1l8 -12c0,0 1,-1 1,-1l14 0c12,-15 26,-38 50,-39 7,11 8,42 8,59 0,26 -27,33 -35,23zm688 -15c-12,4 -12,0 -14,-13 -8,-41 9,-30 15,-1l-1 14zm246 -23c17,-11 98,8 117,15 17,6 88,35 81,56 -13,4 -109,-42 -148,-54 -13,-4 -43,-9 -50,-17zm-150 239c-26,-20 -49,-6 -59,-21 21,-11 47,2 31,-38 -10,-7 -13,-25 -37,-15 -3,13 1,21 -7,30 -10,-6 -20,-46 15,-54l-4 -22c12,-6 10,1 16,-13 1,-14 -9,-44 -15,-54 -6,-26 -15,-39 -16,-72 -1,-15 -3,-19 10,-20 7,16 2,34 13,51 33,50 25,4 74,125 11,30 28,61 42,89 8,16 14,29 23,45 8,15 16,29 23,44 -5,10 -31,33 -46,28 0,-17 14,-10 27,-24 5,-12 -52,-110 -63,-130 -4,-7 -18,-37 -25,-38 -5,25 23,74 34,103 4,11 13,27 8,35 -7,-4 -10,-12 -16,-18 -15,0 -39,21 -84,5 -10,-3 -6,-1 -9,-8l4 -1c3,-1 1,-1 6,-2 2,0 9,1 12,1 23,2 43,6 43,-26zm-134 -191c-56,4 -48,13 -66,13 -1,-22 17,-40 16,-63 -16,-1 -65,53 -68,67 -3,13 1,20 -8,27 -4,3 -21,9 -28,5 -8,-5 0,-13 7,-21 26,-28 45,-58 89,-89 46,-32 62,15 58,61zm-924 -63c7,-4 33,-4 44,-1 10,2 9,1 10,8 -9,7 -48,0 -54,-7zm-61 -9c6,0 10,-1 15,0 8,2 8,3 7,11 -12,3 -21,1 -22,-11zm-159 7c-3,11 -5,22 -16,20 -12,-2 -11,-14 -8,-24 12,-34 31,-21 24,4zm-148 73c1,-2 3,-5 3,-13 -6,-21 -15,-14 -29,-26 -39,-8 -72,-17 -114,-23 -19,-2 -39,-6 -58,-9 -23,-3 -36,-3 -53,-15 -4,-71 26,-132 86,-142 29,-12 126,-22 160,-15 39,9 82,68 86,96 6,58 -15,107 -41,140 -16,20 -28,28 -64,26 -20,-1 -65,-5 -66,-22 20,-6 63,7 90,3zm1385 -113c14,5 35,43 28,56 -8,-2 -8,-3 -12,-9 -3,-4 -6,-8 -8,-13 -5,-10 -8,-21 -8,-34zm-1671 22c0,-14 3,-33 15,-38 0,10 0,14 -3,23 -3,10 -2,13 -12,15zm1420 63c-4,-23 22,-22 66,-59 9,-8 65,-54 71,-55 1,18 -44,55 -59,67 -14,10 -58,51 -78,47zm-864 1c-23,-5 -14,-60 -40,-67 -15,17 -25,48 -37,74 -5,12 -12,28 -18,37 -7,8 -9,6 -19,8 -12,4 -9,9 -20,10 -1,-15 27,-70 34,-86 32,-77 32,-45 50,-71 -9,-11 -39,-8 -16,-36 15,-19 35,4 42,14 13,18 27,89 24,117zm13 -91c19,-5 71,5 93,7 34,4 67,5 102,5 36,0 64,3 94,-12 15,-8 49,-42 70,-31 -2,16 -47,41 -64,51 -38,20 -48,19 -98,18 -32,-1 -139,-17 -179,-25 -13,-2 -17,-1 -18,-13zm1031 -70c12,-1 13,8 17,21 3,10 8,22 4,32 -8,3 -11,3 -20,-19 -4,-11 -8,-24 -1,-34zm-575 18c13,-7 152,3 179,4l43 3c11,2 6,0 9,6 -16,9 -169,-1 -207,-4 -3,-1 -12,-1 -15,-2 -14,-4 -7,-4 -9,-7zm184 135l-45 0c-33,-1 -64,-3 -96,-7 -15,-1 -81,-4 -73,-22 3,-2 0,-1 5,-2l21 0c78,7 221,28 277,-30l30 -31c7,-7 32,-18 40,-19l2 -8c2,-24 14,-37 38,-55 12,-10 43,-34 65,-27 6,12 7,34 10,50 4,21 -10,30 -21,38 -33,23 -113,76 -148,93 -37,18 -59,18 -105,20zm492 -189c8,-1 14,12 18,17 7,7 13,7 21,18 6,9 25,43 21,53 -17,-7 -17,-32 -33,-43 -13,-8 -27,-20 -29,-36 0,0 -1,-4 2,-9zm-1303 17c-5,6 -8,4 -13,11 11,17 31,27 29,48 -13,2 -18,-8 -25,-18 -11,-16 -48,-62 -40,-75 9,5 13,16 19,27 7,-2 28,-23 30,7zm542 28c0,-12 7,-19 12,-28 10,-15 43,-53 59,-55 2,12 -2,13 -5,23 -5,15 -3,42 -18,71 -20,3 -36,-2 -48,-11zm337 -86c17,3 28,3 32,11 -12,8 -227,-2 -234,-6 -3,-2 -7,1 -3,-6 3,-6 16,-4 27,-5 56,0 126,-2 178,6zm-579 9c-10,11 -100,3 -110,-7 1,-7 25,-5 33,-5 19,0 69,-3 77,12zm1036 15c-2,-15 8,-14 22,-16 8,0 31,-1 37,-3 14,-4 5,-14 20,-18 9,-2 27,-2 34,3 -3,14 -24,19 -47,28 -14,5 -50,10 -66,6zm-905 -41l41 -7c18,1 19,1 35,5 15,5 21,2 37,3 -2,10 -33,40 -41,49 -9,10 -32,39 -56,21l6 -19c9,-13 9,-13 -10,-15 -11,-1 -30,0 -37,-5 -23,3 -55,-16 -85,-26 -21,-7 -21,-5 -25,-14 61,2 44,15 135,8zm322 -60c12,-9 126,-10 150,-10 52,2 100,4 151,10 38,4 163,22 189,48 18,18 0,43 -23,43 4,-27 19,-29 -13,-46 -39,-20 -140,-28 -184,-31 -34,-2 -260,-6 -270,-14zm-451 21c6,-18 41,0 62,-11 15,-8 32,-41 43,-17 -3,8 -14,11 -19,17 -7,7 -9,12 -22,14 -15,2 -54,6 -64,-3zm29 -54c-11,0 -38,3 -43,-8 5,-6 69,-2 80,-1 -2,11 -5,9 -37,9zm-731 -13c22,-11 134,1 153,11 -3,4 3,2 -8,4l-75 1c-15,0 -68,2 -70,-16zm861 19c-26,8 -70,-28 -73,-34 20,1 42,13 59,22 10,5 11,3 14,12zm858 44c12,12 44,3 54,19 -16,4 -52,7 -63,-6 -29,-33 11,-29 -86,-64 -21,-8 -42,-14 -45,-32 29,5 79,32 104,45 28,15 24,26 36,38zm-1218 7c-8,-6 -20,-9 -31,-9 0,16 9,14 10,29 -16,-3 -27,-20 -44,-28 -9,-4 -17,-6 -27,-8 -18,-3 -21,0 -27,-8 11,-12 53,-2 73,-9 -5,-14 -33,-26 -49,-33 -35,-15 -53,-14 -54,-30 21,0 117,33 187,28 18,-1 45,-14 60,-11 -4,11 -17,14 -21,29 -5,14 -2,32 -6,45 -12,-6 -6,-8 -17,-14 -11,5 -12,20 -21,25 -9,6 -24,-3 -33,-6zm-218 -85c9,2 7,8 24,5l5 -1c2,-6 5,-10 7,-17 2,-6 2,-11 5,-16 5,5 6,11 8,18 10,43 11,78 -44,53 -14,-6 -16,-11 -22,-25 -6,-15 -22,-63 -7,-78 10,5 15,37 24,61zm1594 -33c16,2 15,33 17,50 1,12 3,47 -6,56 -7,-5 -3,-16 -3,-25 2,-39 -10,-61 -8,-81zm-1217 103c-9,-1 -9,-3 -12,-10 -12,-23 -28,-59 -10,-83 4,-6 17,-15 28,-12 -4,20 -22,20 -17,52 2,14 14,41 11,53zm-190 -140c17,0 62,-2 73,5 25,-5 71,0 77,20 -15,9 -42,-4 -59,-2l-8 21c-8,-3 -9,-8 -14,-14 -9,6 -5,13 -14,23 -20,-2 -26,-31 -44,-30 0,5 -4,13 -12,10 -10,-3 -2,-9 -21,-8 -5,5 -3,9 -11,11 -10,2 -6,-2 -16,-5 -11,-2 -29,1 -42,-1 -9,-19 -7,-30 17,-31l74 1zm752 39c7,-19 93,-45 115,-52 19,-6 49,-18 67,-6 11,8 37,31 38,44 -16,0 -37,-9 -57,-11 -75,-8 -149,30 -163,25zm603 -37c-7,-2 -18,-9 -25,-14 -9,-6 -16,-11 -25,-17 -9,-6 -16,-9 -15,-21 18,-5 46,-7 62,2 10,6 28,26 31,41 -5,3 -8,3 -14,6 -7,4 -3,6 -14,3zm-82 41l-7 -1c-9,15 -5,32 -4,53 -53,-6 -20,-37 -16,-70 -22,2 -29,38 -48,51 -8,-1 -16,-7 -23,-12 -24,-16 0,-63 -37,-62l-3 11c4,13 7,30 -10,27 -3,-11 1,-21 -6,-29l-9 0c-16,-2 -14,-7 -24,-15 -12,-10 -13,-2 -26,0 -12,-17 3,-16 -29,-29 -31,-12 -15,-2 -27,-28l-18 1c-13,22 -2,48 13,60 8,7 14,11 24,17 9,6 18,9 23,17 -7,4 -13,0 -20,-3 -27,-16 -58,-40 -59,-73 -1,-16 0,-32 17,-34 23,-2 290,82 323,96 31,13 42,21 54,50 9,21 24,67 5,84 -17,-4 -32,-26 -38,-46 -4,-17 -5,-66 -25,-55 -1,0 -1,1 -1,1l-1 4c-1,1 -1,1 -1,2l1 19c1,9 0,19 -1,27 -9,-2 -9,-3 -11,-12 -2,-6 -3,-13 -4,-19 -4,-21 -7,-19 -12,-32zm-1628 -129c10,1 8,2 12,14 10,36 17,94 21,102 5,12 14,20 15,31 -33,6 -51,-136 -48,-147zm67 -24c39,-16 57,48 21,63 -38,16 -53,-50 -21,-63zm285 13c17,4 18,22 21,41 -16,0 -9,-8 -16,-20 -21,-4 -26,4 -38,3 -4,-9 -9,-20 2,-24 5,-2 25,-1 31,0zm-181 21c13,4 28,3 41,5 -1,12 -5,13 -19,13 -19,1 -56,-7 -58,-31 14,2 21,10 36,13zm1463 -27c-15,0 -10,-3 -11,-6 10,-6 49,-4 60,-1 -2,7 0,7 -12,7l-37 0zm-724 20c2,-14 18,-13 44,-19 16,-4 36,-13 53,-10 -9,11 -81,34 -97,29zm-529 -41c7,4 53,57 52,79 -21,-1 -48,-50 -52,-79zm744 14c-13,-2 -59,-18 -64,-27 7,-5 67,7 64,27zm-1006 -25c5,-9 15,-9 28,-10 20,-2 25,-1 28,8 0,0 -1,1 -1,1 -9,3 -41,6 -55,1zm132 -11c15,8 49,73 35,101 -17,0 -18,-20 -24,-48 -5,-28 -4,-21 -11,-42 -2,-5 -3,-7 0,-11zm1457 18c-10,-10 -10,-34 -7,-49 11,1 19,11 21,22 3,14 -3,25 -14,27zm-188 33l0 0c-13,3 -6,9 -16,19 -6,4 -180,-26 -201,-32 -25,-8 -16,-36 -34,-44 -14,8 -7,15 -14,26 -41,1 -9,-46 -5,-48 19,-12 134,2 157,5 43,5 59,5 92,24 16,10 58,35 63,50 -11,4 -29,0 -42,0zm-1199 -91c16,7 23,34 24,56 -22,3 -50,-3 -61,-15 -11,-12 -30,-28 -33,-42 14,-11 52,-7 70,1zm1357 -9c-17,1 -40,-5 -45,-18 17,-4 42,3 45,18zm-494 -36c19,2 27,6 33,20 5,11 11,30 5,42 -8,3 -28,-1 -34,-5 -26,-5 -59,-20 -61,-42 11,-18 34,-15 57,-15zm-679 132c-25,18 -6,9 -41,13 -7,6 -7,9 -16,13 -13,-11 -17,-65 -31,-83l-18 3c-10,-16 -4,-30 -26,-37 -10,-3 -10,-4 -12,-18 -2,-9 -4,-18 -1,-28 10,5 15,14 22,21 40,48 71,48 122,90 24,20 38,27 39,49 -16,-2 -22,-18 -38,-23zm643 -156c-15,4 -57,5 -65,-12 9,-6 60,-4 65,12zm-908 151c-20,3 -68,-95 -74,-129 -7,-37 9,-56 41,-61 19,-3 82,-6 85,16 -11,5 -58,-5 -79,1 -24,8 -36,27 -23,55 9,22 55,94 50,118zm1119 -197c8,1 0,-1 5,2 5,3 4,4 12,8l23 7c16,-3 51,4 67,8 17,4 45,9 48,25 -21,1 -81,-29 -95,-13 -11,14 19,48 25,53 18,14 60,-1 74,10 -4,8 -13,8 -25,9 -59,5 -51,-9 -88,-11 -46,-2 -148,2 -175,-28 -12,-13 -22,-21 -33,-33 -20,-23 -74,-149 -83,-184 -15,-64 85,-65 129,-66 21,-1 47,-4 58,9 9,13 39,71 41,90 -23,18 -20,9 -7,54 15,53 10,28 24,60zm-167 -241c-29,5 -66,14 -86,27 -29,18 -32,39 -19,76 13,42 64,133 64,156 -44,1 -68,-18 -103,11 -55,47 -6,99 -111,134 -29,10 -67,22 -100,25l-64 15 -19 5c-7,8 -13,5 -13,21 0,12 4,15 12,20l76 -4 4 8c4,10 4,14 17,14 17,-11 31,-19 55,-25 24,-4 16,-1 35,5 14,5 25,1 39,-1 13,-6 50,-16 67,-22 32,-9 33,-8 53,13 21,22 17,21 19,60 -27,11 -55,22 -80,37 -27,16 -10,21 -61,54 -19,12 -136,78 -152,81 -8,-25 -8,-36 -24,-52 -32,-31 -107,-67 -149,-77 -7,-2 -19,-4 -23,-8 -59,6 -60,-30 -54,-38 21,-16 52,-4 50,-46 -3,-53 -47,-57 -75,-71 -11,-6 -20,-12 -30,-19 -47,-34 -58,-23 -115,-79l-63 -59c-34,-31 -94,-34 -138,-31 -23,3 -39,3 -52,16 -13,15 -9,35 -16,49 -2,17 -6,42 -10,57 -6,22 -10,29 -24,38 -17,11 -33,8 -49,16 -10,5 -28,26 -40,17 -7,-5 -9,-23 -15,-41 -13,-41 -22,-87 -32,-130l-40 -176 -10 -24c-5,2 -6,3 -9,8 0,20 10,58 15,79 6,26 11,50 17,76 6,24 33,138 31,156 7,8 11,51 10,65l-35 11 -12 4 -7 7c-20,16 -21,30 -26,53 -1,14 0,49 -5,59 -8,16 -21,5 -34,26 -20,32 -15,59 6,91 17,26 58,18 85,38 20,14 24,0 49,1 15,1 39,5 44,17 -32,27 -88,-8 -131,63 -11,18 -24,43 -33,64 -7,14 -21,59 -29,67 -7,30 -16,22 -6,58 6,11 11,22 17,34 8,15 13,16 17,35 6,25 12,19 21,33 7,10 2,30 3,46 5,7 5,10 13,17 6,6 12,8 16,14 11,1 56,16 74,20 24,6 56,13 80,16l56 13c34,5 19,14 43,77 13,31 26,52 44,75 32,41 77,77 155,78 43,1 70,-2 106,-17 12,-6 38,-22 45,-23 6,-11 16,-19 26,-24 2,-9 36,-49 42,-59l57 13 37 7 75 10 51 6 86 9 66 8 78 7c16,1 48,-1 59,6 28,-6 57,9 84,10 28,1 201,-6 230,-12 21,-5 22,-14 31,-17 14,21 32,107 75,159 4,4 7,7 11,12 31,40 72,69 117,93 18,9 49,19 70,25 70,18 104,8 165,-5 3,-2 47,-24 53,-26 21,-15 37,-26 54,-42 95,-89 129,-249 94,-374 -8,-28 -18,-47 -29,-70 -5,-12 -11,-22 -17,-32 -6,-9 -18,-19 -19,-32 6,-4 28,-9 0,-37 -32,-31 -68,-62 -111,-85 -77,-41 -122,-40 -220,-45 -22,-37 0,-60 21,-108 21,-47 24,-40 43,-68 5,-7 10,-18 15,-22 9,-31 14,-28 14,-68 0,-14 -3,-58 -2,-66 -4,-6 -5,-12 -7,-19 -8,-22 -15,-32 -23,-50 -9,-16 -43,-62 -46,-77 5,-7 4,-4 11,-9 5,-4 7,-7 11,-9 6,-12 7,-24 2,-38 -4,-27 -19,-36 -36,-49 -14,-12 -36,-23 -59,-25l-19 0c-16,6 -19,26 -31,34 -10,-3 -13,-10 -20,-19 -15,-21 -101,-146 -105,-159 -3,1 -2,2 -3,-2 -11,-18 -24,-37 -36,-58 -9,-16 -25,-48 -36,-59 -34,-33 -72,-53 -139,-51l-64 4z"/>
   <path class="fil4" d="M2863 2116c101,-98 215,-188 344,-247 32,-14 66,-26 99,-38 -35,-3 -71,-2 -106,-2 -33,-1 -67,-2 -100,0 -28,2 -61,0 -88,9 -14,4 -27,14 -40,21 -78,48 -151,106 -221,166 -24,20 -59,55 -84,70 60,18 122,24 183,35l13 -14z"/>
   <path class="fil4" d="M4124 2209c-25,7 -51,14 -76,19 3,8 -1,16 3,23 2,1 3,1 5,1 12,-2 70,-13 75,-20 1,-1 1,-1 1,-2 0,0 1,0 1,-1 0,0 0,-1 1,-1 0,-1 0,-1 0,-2 0,-1 0,-1 0,-2 0,0 0,-1 0,-1 0,-1 0,-1 0,-2 0,0 0,-1 0,-1 -1,-4 -2,-7 -5,-10l-5 -1z"/>
   <path class="fil4" d="M4393 2160c-1,3 -2,5 -1,7 1,2 3,6 5,7 3,1 6,0 8,0 15,-2 35,-3 46,-12 1,-4 2,-6 1,-9 -1,-2 -4,-6 -6,-6 -3,-1 -7,0 -10,0 -10,2 -38,6 -43,13z"/>
   <path class="fil4 str1" d="M2284 2218c0,-5 0,-9 0,-13 -101,31 -200,70 -286,130 -12,8 -27,17 -37,28 21,-9 45,-27 65,-38 33,-19 70,-36 105,-50 50,-20 101,-39 153,-57z"/>
   <path class="fil4" d="M2284 2205c0,4 0,8 0,13 22,-8 44,-16 67,-23 34,-12 69,-22 104,-34 15,-5 32,-9 46,-16 -39,7 -78,20 -116,30 -33,10 -67,19 -101,30z"/>
   <path class="fil4" d="M2284 2218c0,-5 0,-9 0,-13 -101,31 -200,70 -286,130 -12,8 -27,17 -37,28 21,-9 45,-27 65,-38 33,-19 70,-36 105,-50 50,-20 101,-39 153,-57z"/>
   <path class="fil4" d="M4694 2244c1,7 10,11 20,13l132 0c0,0 0,-1 1,-2 -19,-10 -131,-22 -153,-11z"/>
   <path class="fil4 str0" d="M4809 2073c-3,11 15,153 48,147 -1,-11 -10,-19 -15,-31 -4,-8 -11,-66 -21,-102 -4,-12 -2,-13 -12,-14z"/>
   <path class="fil4 str0" d="M4953 2168c-15,15 1,63 7,78 2,5 4,8 6,11l65 0c0,-11 -2,-24 -5,-39 -2,-7 -3,-13 -8,-18 -3,5 -3,10 -5,16 -2,7 -5,11 -7,17l-5 1c-17,3 -15,-3 -24,-5 -9,-24 -14,-56 -24,-61z"/>
   <path class="fil4 str0" d="M4897 2112c36,-15 18,-79 -21,-63 -32,13 -17,79 21,63z"/>
   <path class="fil4 str0" d="M4944 2070c2,24 39,32 58,31 14,0 18,-1 19,-13 -13,-2 -28,-1 -41,-5 -15,-3 -22,-11 -36,-13z"/>
   <path class="fil4 str0" d="M4928 2024c14,5 46,2 55,-1 0,0 1,-1 1,-1 -3,-9 -8,-10 -28,-8 -13,1 -23,1 -28,10z"/>
   <path class="fil4 str0" d="M4975 1926c6,34 54,132 74,129 5,-24 -41,-96 -50,-118 -13,-28 -1,-47 23,-55 21,-6 68,4 79,-1 -3,-22 -66,-19 -85,-16 -32,5 -48,24 -41,61z"/>
   <path class="fil4 str0" d="M5060 1972c3,14 22,30 33,42 11,12 39,18 61,15 -1,-22 -8,-49 -24,-56 -18,-8 -56,-12 -70,-1z"/>
   <path class="fil4 str0" d="M5095 2114c14,-28 -20,-93 -35,-101 -3,4 -2,6 0,11 7,21 6,14 11,42 6,28 7,48 24,48z"/>
   <path class="fil4 str0" d="M5130 2062c-11,4 -6,15 -2,24 12,1 17,-7 38,-3 7,12 0,20 16,20 -3,-19 -4,-37 -21,-41 -6,-1 -26,-2 -31,0z"/>
   <path class="fil4 str0" d="M5190 2035c4,29 31,78 52,79 1,-22 -45,-75 -52,-79z"/>
   <path class="fil4 str0" d="M5226 2003c14,18 18,72 31,83 9,-4 9,-7 16,-13 35,-4 16,5 41,-13 16,5 22,21 38,23 -1,-22 -15,-29 -39,-49 -51,-42 -82,-42 -122,-90 -7,-7 -12,-16 -22,-21 -3,10 -1,19 1,28 2,14 2,15 12,18 22,7 16,21 26,37l18 -3z"/>
   <path class="fil4 str0" d="M5541 2251c-17,-9 -39,-21 -59,-22 2,4 19,19 38,28l32 0c-2,-2 -4,-3 -11,-6z"/>
   <path class="fil4 str0" d="M5425 2257c32,0 35,2 37,-9 -11,-1 -75,-5 -80,1 5,11 32,8 43,8z"/>
   <path class="fil4 str0" d="M5274 2257c6,-9 15,-13 19,-22 -15,-3 -42,10 -60,11 -70,5 -166,-28 -187,-28 1,16 19,15 54,30 6,2 13,6 20,9l154 0z"/>
   <path class="fil4 str0" d="M5332 2206c-11,15 -9,34 -4,51l18 0c-2,-4 -3,-8 -3,-11 -5,-32 13,-32 17,-52 -11,-3 -24,6 -28,12z"/>
   <path class="fil4 str0" d="M5255 2182c17,-2 44,11 59,2 -6,-20 -52,-25 -77,-20 -11,-7 -56,-5 -73,-5l-74 -1c-24,1 -26,12 -17,31 13,2 31,-1 42,1 10,3 6,7 16,5 8,-2 6,-6 11,-11 19,-1 11,5 21,8 8,3 12,-5 12,-10 18,-1 24,28 44,30 9,-10 5,-17 14,-23 5,6 6,11 14,14l8 -21z"/>
   <path class="fil4 str0" d="M6078 2007c18,8 9,36 34,44 21,6 195,36 201,32 10,-10 3,-16 16,-19l0 0c13,0 31,4 42,0 -5,-15 -47,-40 -63,-50 -33,-19 -49,-19 -92,-24 -23,-3 -138,-17 -157,-5 -4,2 -36,49 5,48 7,-11 0,-18 14,-26z"/>
   <path class="fil4 str0" d="M6471 2179c-33,-14 -300,-98 -323,-96 -17,2 -18,18 -17,34 1,33 32,57 59,73 7,3 13,7 20,3 -5,-8 -14,-11 -23,-17 -10,-6 -16,-10 -24,-17 -15,-12 -26,-38 -13,-60l18 -1c12,26 -4,16 27,28 32,13 17,12 29,29 13,-2 14,-10 26,0 10,8 8,13 24,15l9 0c7,8 3,18 6,29 17,3 14,-14 10,-27l3 -11c37,-1 13,46 37,62 7,5 15,11 23,12 19,-13 26,-49 48,-51 -4,33 -37,64 16,70 -1,-21 -5,-38 4,-53l7 1c5,13 8,11 12,32 1,6 2,13 4,19 0,2 1,3 1,4l11 0c1,-6 1,-13 0,-19l-1 -19c0,-1 0,-1 1,-2l1 -4c0,0 0,-1 1,-1 17,-9 20,25 24,45l44 0c0,0 0,-1 0,-1 -3,-11 -7,-20 -10,-27 -12,-29 -23,-37 -54,-50z"/>
   <path class="fil4 str0" d="M6354 2257c-26,-13 -59,-29 -81,-33 3,18 24,24 45,32 1,0 2,1 3,1l33 0z"/>
   <path class="fil4 str0" d="M6136 2184c-1,-13 -27,-36 -38,-44 -18,-12 -48,0 -67,6 -22,7 -108,33 -115,52 14,5 88,-33 163,-25 20,2 41,11 57,11z"/>
   <path class="fil4 str0" d="M6469 2130c9,6 16,11 25,17 7,5 18,12 25,14 9,3 8,1 12,-2 -1,-13 -3,-26 -4,-40 -4,-3 -8,-6 -11,-8 -16,-9 -44,-7 -62,-2 -1,12 6,15 15,21z"/>
   <path class="fil4 str0" d="M6443 2056l37 0c12,0 10,0 12,-7 -11,-3 -50,-5 -60,1 1,3 -4,6 11,6z"/>
   <path class="fil4 str0" d="M6442 1946c5,13 28,19 45,18 -3,-15 -28,-22 -45,-18z"/>
   <path class="fil4 str0" d="M6144 1798c-13,-45 -16,-36 7,-54 -2,-19 -32,-77 -41,-90 -11,-13 -37,-10 -58,-9 -44,1 -144,2 -129,66 9,35 63,161 83,184 11,12 21,20 33,33 27,30 129,26 175,28 37,2 29,16 88,11 12,-1 21,-1 25,-9 -14,-11 -56,4 -74,-10 -6,-5 -36,-39 -25,-53 14,-16 74,14 95,13 -3,-16 -31,-21 -48,-25 -16,-4 -51,-11 -67,-8l-23 -7c-8,-4 -7,-5 -12,-8 -2,-1 -2,-2 -2,-2 0,0 -1,0 -3,0 -14,-32 -9,-7 -24,-60z"/>
   <path class="fil4 str0" d="M6026 1948c-6,-14 -14,-18 -33,-20 -23,0 -46,-3 -57,15 2,22 35,37 61,42 6,4 26,8 34,5 6,-12 0,-31 -5,-42z"/>
   <path class="fil4 str0" d="M5892 1892c8,17 50,16 65,12 -5,-16 -56,-18 -65,-12z"/>
   <path class="fil4 str0" d="M5934 2049c3,-20 -57,-32 -64,-27 5,9 51,25 64,27z"/>
   <path class="fil4 str0" d="M5719 2076c16,5 88,-18 97,-29 -17,-3 -37,6 -53,10 -26,6 -42,5 -44,19z"/>
   <path class="fil4 str0" d="M4982 2271c36,16 48,7 49,-14l-65 0c3,6 7,10 16,14z"/>
   <path class="fil4 str0" d="M5149 2281c-20,7 -62,-3 -73,9 6,8 9,5 27,8 10,2 18,4 27,8 17,8 28,25 44,28 -1,-15 -10,-13 -10,-29 11,0 23,3 31,9 9,3 24,12 33,6 9,-5 10,-20 21,-25 11,6 5,8 17,14 4,-13 1,-31 6,-45 0,-3 1,-5 2,-7l-154 0c13,7 26,15 29,24z"/>
   <path class="fil4 str0" d="M5317 2364c-8,0 -32,-2 -33,5 10,10 100,18 110,7 -8,-15 -58,-12 -77,-12z"/>
   <path class="fil4 str0" d="M5025 2420c-15,-15 -32,-27 -48,-31 -34,-7 -131,3 -160,15 -15,2 -28,8 -39,16l247 0z"/>
   <path class="fil4 str0" d="M4764 2260l75 -1c8,-1 7,-1 7,-2l-132 0c18,4 41,3 50,3z"/>
   <path class="fil4 str0" d="M5460 2314c13,-2 15,-7 22,-14 5,-6 16,-9 19,-17 -11,-24 -28,9 -43,17 -21,11 -56,-7 -62,11 10,9 49,5 64,3z"/>
   <path class="fil4 str0" d="M5354 2299c3,-9 -4,-27 -8,-42l-18 0c4,12 9,23 14,32 3,7 3,9 12,10z"/>
   <path class="fil4 str0" d="M5520 2257c12,6 25,10 35,6 -1,-3 -2,-4 -3,-6l-32 0z"/>
   <path class="fil4 str0" d="M5997 2280c-24,0 -138,1 -150,10 10,8 236,12 270,14 44,3 145,11 184,31 32,17 17,19 13,46 23,0 41,-25 23,-43 -26,-26 -151,-44 -189,-48 -51,-6 -99,-8 -151,-10z"/>
   <path class="fil4 str0" d="M5973 2367c-52,-8 -122,-6 -178,-6 -11,1 -24,-1 -27,5 -4,7 0,4 3,6 7,4 222,14 234,6 -4,-8 -15,-8 -32,-11z"/>
   <path class="fil4 str0" d="M6169 2396c-20,-7 -48,14 -62,24l68 0c-1,-9 -3,-18 -6,-24z"/>
   <path class="fil4 str0" d="M6321 2257c15,6 27,10 36,14 -1,-4 -1,-9 -2,-13 0,0 -1,-1 -1,-1l-33 0z"/>
   <path class="fil5 str0" d="M1894 2460c4,-22 21,-99 19,-116 -28,36 -52,91 -46,137 1,12 5,23 10,34 3,4 6,8 9,12 2,-22 4,-45 8,-67z"/>
   <path class="fil4 str0" d="M1885 2550c-23,-20 -25,-29 -38,-54 -8,12 -13,21 -11,36 4,24 20,44 39,58l1 0c5,-5 6,-31 9,-40z"/>
   <path class="fil4 str0" d="M2228 2730c-60,10 -231,-42 -282,-80 -18,-13 -27,-31 -30,-54 -6,-40 6,-135 30,-167 15,0 30,5 44,7 103,18 205,40 306,66 24,6 63,12 83,25 3,2 7,4 8,8 1,10 -4,22 -9,31 -10,17 -24,33 -36,49 -15,19 -30,38 -45,57 -17,23 -38,54 -69,58zm-293 -316c-30,36 -40,151 -34,197 2,25 8,50 28,66 53,42 233,89 300,81 26,-4 42,-22 57,-41 3,-4 6,-8 9,-12 23,-29 47,-58 70,-88 15,-20 32,-41 44,-64 6,-10 11,-24 10,-36 -1,-9 -6,-17 -13,-23 -18,-15 -85,-25 -112,-32 -51,-13 -102,-31 -153,-44 -29,-7 -59,-12 -89,-17 -25,-3 -51,-7 -76,-5 -17,1 -30,5 -41,18z"/>
   <path class="fil4 str0" d="M1991 2465c76,28 157,41 237,55 43,7 87,16 131,19 -8,-5 -103,-23 -118,-27 -51,-10 -101,-22 -151,-34 -42,-10 -86,-18 -125,-36 0,2 -1,8 0,10 4,6 19,10 26,13z"/>
   <path class="fil4 str0" d="M2286 2561c-57,-11 -304,-55 -324,-95 -1,-2 -1,-3 -2,-5 -2,6 -4,11 -3,17 12,21 88,46 112,52 81,22 197,40 281,44l0 -1c-1,0 -1,0 -2,-1 -10,-4 -48,-8 -62,-11z"/>
   <path class="fil4 str0" d="M2261 2596c-62,-11 -264,-50 -303,-89l-5 -14c-2,7 -3,13 -4,20 57,59 281,93 366,94 4,0 7,0 11,0 -6,-4 -54,-9 -65,-11z"/>
   <path class="fil4 str0" d="M2222 2627c-79,-14 -165,-27 -238,-63 -10,-6 -24,-12 -31,-21 -4,-4 -3,-10 -5,-15l-4 19c59,69 240,88 327,95 10,1 20,2 30,2 -6,-6 -67,-15 -79,-17z"/>
   <path class="fil4 str0" d="M2181 2660c-48,-9 -208,-43 -232,-82 -3,-4 -4,-10 -6,-14 -2,12 0,18 7,28 40,50 178,73 239,79 29,3 61,8 89,5l-1 0c-31,-8 -65,-11 -96,-16z"/>
   <path class="fil4 str0" d="M2193 2702c-58,-9 -185,-33 -231,-66 -10,-8 -16,-18 -25,-26 11,29 33,43 59,56 52,24 196,59 250,42l0 -1c-17,-3 -36,-3 -53,-5z"/>
   <path class="fil4 str0" d="M2302 2453c33,9 66,15 99,24 7,2 15,5 22,9 11,8 14,18 16,30 17,-12 33,-24 51,-34 37,-21 78,-37 118,-53 87,-33 174,-59 262,-84 68,-18 136,-37 204,-53 82,-19 164,-36 247,-51 43,-8 86,-16 130,-22 20,-3 41,-7 62,-7 -19,5 -40,7 -60,11l-156 32c-235,49 -543,124 -748,251 81,-14 162,-26 244,-36 27,-4 54,-7 82,-10 17,-1 35,-2 51,-6 22,-5 43,-19 64,-27 54,-22 109,-43 164,-63 73,-26 147,-50 221,-74 48,-15 95,-30 142,-49 18,-7 43,-19 56,-34 19,-22 29,-53 42,-79 44,-92 97,-223 168,-295 45,-46 119,-67 183,-72 26,-2 52,-2 78,-2 -2,-2 -3,-2 -6,-2 -65,-11 -168,9 -227,36 -20,9 -38,21 -56,33 -25,-1 -50,-5 -75,-8 -39,-4 -78,-8 -117,-11 -35,-3 -70,-5 -105,-7 -35,-2 -70,-3 -105,-3 -35,0 -70,0 -104,1 -35,1 -70,2 -105,4 -31,2 -66,2 -96,10 -12,4 -24,11 -35,18 95,-19 214,-14 312,-11 97,2 194,8 291,17 40,3 80,6 120,12 -13,18 -25,37 -37,56 -25,42 -45,87 -67,131 -26,50 -53,99 -78,149 -103,0 -205,-3 -308,-9 -103,-5 -205,-14 -307,-26 -59,-6 -119,-15 -178,-24 -17,-4 -35,-7 -53,-11 -20,-4 -46,-14 -67,-13l0 1c1,1 2,3 3,4 11,10 57,22 73,26 56,16 113,26 171,35 125,20 251,30 378,35 53,2 107,2 160,4 -3,4 -55,4 -63,4 -111,7 -221,23 -331,39 -149,21 -296,48 -443,80 -70,16 -141,30 -211,47 -66,16 -130,35 -198,43 41,11 81,24 122,34z"/>
   <path class="fil4 str0" d="M2903 2686c-107,39 -319,25 -435,15 -19,-1 -64,-2 -80,-7 0,-4 2,-6 4,-9 7,-3 85,6 100,7 101,6 204,11 305,2 27,-3 54,-5 80,-12 6,-2 12,-4 19,-6 6,-3 12,-5 18,-8 5,-3 11,-6 17,-9 5,-4 11,-8 16,-11 48,-36 91,-109 118,-163 4,-8 8,-17 11,-26 -50,10 -103,16 -154,20 -24,3 -49,4 -74,7 -49,5 -99,12 -148,21 -149,24 -224,60 -321,179 -10,11 -19,23 -27,36 45,12 108,14 155,17 128,9 258,18 384,-14 27,-7 55,-15 80,-30 9,-5 7,-15 20,-12 10,3 19,7 29,9 32,8 109,24 138,20 -30,-5 -60,-10 -89,-17 -25,-6 -49,-13 -73,-19 47,-42 88,-126 110,-185 4,-9 11,-24 11,-34 0,-1 0,-1 0,-3l-3 1c-5,1 -10,2 -15,3 -10,21 -19,43 -30,64 -37,69 -91,137 -166,164zm-107 1c-36,5 -73,4 -109,5 -58,-1 -116,-3 -173,-7 -37,-2 -75,-5 -112,-10 17,-22 39,-42 60,-59 104,-85 209,-84 336,-98 76,-8 151,-18 225,-30 1,0 2,0 3,0 3,-1 9,1 12,3 3,2 4,5 4,8 2,21 -35,70 -49,87 -41,53 -83,85 -152,93 -33,4 -67,2 -94,-20 -2,0 -3,-1 -4,-2 -1,-1 -2,-2 -3,-3 0,-1 -1,-2 -2,-3 -1,-1 -2,-2 -3,-3 -1,-1 -2,-2 -2,-3 -1,-1 -2,-2 -3,-3 -1,-2 -1,-3 -2,-4 -1,-1 -1,-2 -2,-3 -1,-2 -1,-3 -2,-4 0,-1 -1,-2 -2,-4 0,-1 -1,-2 -1,-3 0,-2 -1,-3 -1,-4 -1,-2 -1,-3 -1,-4 -1,-1 -1,-3 -1,-4 -1,-1 -1,-3 -1,-4 0,-1 0,-3 -1,-4 -3,-31 11,-52 30,-75 -5,2 -9,4 -13,7 -15,11 -24,31 -26,49 -3,25 4,48 19,67 19,23 42,32 70,35z"/>
   <path class="fil6 str0" d="M2670 2662c10,-27 15,-55 24,-82 3,-11 11,-23 13,-34l-1 -1c-31,3 -67,9 -97,17 -43,12 -109,44 -137,80 -3,3 -5,7 -7,11 1,4 1,4 5,6 1,0 1,0 2,0 54,5 147,12 198,3z"/>
   <path class="fil5 str0" d="M2868 2537c17,17 27,35 27,59 0,11 -2,21 -5,31 -1,5 -3,10 -4,15 53,-25 91,-71 120,-121l0 -3c-2,0 -4,0 -5,0 -44,9 -88,19 -133,19z"/>
   <path class="fil5 str0" d="M2871 2571c0,-1 0,-2 -1,-3 0,-1 -1,-2 -1,-3 -1,-1 -2,-2 -2,-2 -1,-1 -1,-2 -2,-3 -1,-1 -1,-2 -2,-3 -1,-1 -1,-2 -2,-2 -1,-1 -1,-2 -2,-3 -1,-1 -2,-1 -3,-2 0,-1 -1,-2 -2,-2 -1,-1 -2,-2 -3,-2 0,-1 -1,-2 -2,-2 -12,-9 -27,-12 -42,-11 -17,3 -32,10 -43,24 -1,1 -1,2 -2,3 0,1 -1,2 -1,2 -1,1 -1,2 -2,3 0,1 0,2 -1,3 0,0 -1,1 -1,2 0,1 -1,2 -1,3 0,1 0,2 -1,3 0,1 0,2 0,3 -1,1 -1,2 -1,3 0,0 0,1 0,2 -1,1 -1,2 -1,3 0,1 0,2 0,3 0,1 0,2 0,3 0,1 0,2 0,3 0,1 0,2 0,3 1,1 1,2 1,3 3,17 14,34 28,44 13,9 27,13 43,13 16,-3 30,-8 40,-22 10,-14 14,-33 11,-50 0,-1 0,-2 0,-3 -1,-1 -1,-2 -1,-3 -1,-2 -1,-3 -1,-4 -1,-1 -1,-2 -1,-3 -1,-1 -1,-2 -2,-3z"/>
   <path class="fil4 str0" d="M3404 2426c-77,5 -140,39 -190,97 -43,49 -75,111 -93,173 0,0 1,0 1,-1 12,-19 20,-41 32,-61 52,-84 126,-149 224,-171 30,-7 59,-6 90,-2 56,15 92,42 122,93 42,70 51,151 50,231 0,3 -1,13 2,15 3,-15 2,-32 2,-46 -2,-76 -18,-165 -61,-228 -32,-49 -78,-85 -136,-96 -7,-2 -15,-3 -22,-3 -7,-1 -14,-1 -21,-1z"/>
   <path class="fil4 str0" d="M3104 2433c28,-7 55,-18 82,-27 49,-17 97,-33 146,-49 97,-30 198,-53 297,-75 21,30 38,68 48,104 -38,13 -77,19 -115,32l1 1c14,-1 28,-5 41,-8l77 -16c1,18 3,36 4,54 5,96 0,191 -9,285 -3,30 -5,62 -13,90 73,-25 144,-53 216,-80 131,-50 261,-102 388,-159 18,-8 88,-35 95,-50 7,-15 9,-33 13,-49 13,-60 33,-119 57,-175 16,-40 39,-82 48,-124 5,-20 6,-44 -2,-63 -3,-7 -8,-16 -14,-21 32,-4 64,-8 95,-12 16,-3 34,-4 49,-7 4,-1 8,-2 10,-5 -9,-4 -144,9 -162,11 6,-22 -5,-66 -15,-85 -30,-54 -141,-136 -195,-166 -6,-4 -13,-8 -20,-11 -7,-3 -14,-7 -21,-10 -7,-3 -15,-5 -22,-8 -7,-3 -14,-5 -22,-7 -51,-15 -106,-17 -158,-14 -84,7 -151,18 -209,86 -59,70 -163,291 -173,384 -58,9 -115,26 -171,40 -109,28 -217,56 -323,92 -37,12 -73,26 -109,40 -20,8 -41,19 -61,24 13,3 126,-17 147,-22zm575 -72c-10,-29 -26,-55 -41,-82 30,-10 61,-16 92,-24 69,-18 140,-30 210,-44 24,-5 48,-12 72,-17 43,-8 85,-16 127,-26 0,0 1,0 1,0 1,1 2,2 3,3 7,18 21,75 14,92 -29,7 -60,13 -89,20 -77,19 -153,39 -229,59 -51,13 -103,26 -153,43l-7 -24zm13 116c-1,-28 -1,-57 -5,-84 44,-12 90,-21 135,-31 79,-17 158,-35 237,-54l65 -16c12,-3 25,-5 36,-10 0,2 1,2 1,3 1,13 -1,26 -1,39 -1,34 -1,68 -4,103 -3,38 -19,178 -38,202 2,-2 5,-4 7,-6 7,-8 11,-27 14,-37 18,-68 23,-139 27,-209 1,-21 2,-44 2,-66 -1,-10 -2,-20 -3,-29 80,-29 165,-46 247,-67l0 -1c-6,-2 -223,42 -250,47 2,-2 2,-4 2,-7 1,-16 -9,-75 -20,-88 38,-4 76,-16 114,-24 67,-13 134,-26 201,-38 6,5 9,14 12,20 16,41 -4,88 -21,126 -1,2 -1,3 -2,5l1 0 -1 3c-1,3 -1,5 -3,7 -1,11 -22,52 -27,65 -6,15 -12,30 -17,45 -10,30 -19,61 -27,92 -5,20 -6,46 -15,64 -1,3 -2,5 -4,6 -14,10 -33,16 -49,23 -56,25 -112,49 -169,72 -156,63 -311,127 -468,186 6,-21 7,-46 10,-67 3,-23 5,-46 7,-68 2,-23 4,-46 5,-69 1,-23 2,-46 2,-68 0,-23 0,-46 -1,-69zm-27 -212c-2,-6 -1,-15 -1,-21 -6,1 -12,3 -17,5 2,-34 8,-64 15,-97l12 -5c26,-72 95,-212 145,-269 50,-57 121,-69 192,-73 51,-2 104,0 153,14 14,4 27,8 41,14 13,5 26,12 39,18 56,30 157,101 189,158 9,16 23,64 18,82 -24,6 -62,9 -88,14l-227 43c1,-5 -3,-10 -5,-15 -2,5 2,9 1,14 0,1 0,1 0,2 -16,5 -35,7 -52,9 -24,5 -49,10 -73,13 -9,4 -24,5 -34,7 0,3 -1,5 -3,8 -6,9 -16,17 -26,20 -32,10 -137,6 -177,8 -19,0 -38,4 -57,8 1,7 2,18 -1,25 -3,5 -16,11 -22,13 -6,3 -16,7 -22,5z"/>
   <path class="fil4 str0" d="M4467 2653c0,0 0,0 0,0 17,-13 34,-78 40,-81 8,29 -42,105 -10,122 7,4 17,5 24,2 3,0 5,-1 7,-2l-1 2c-6,5 -16,4 -24,4 -2,-2 -1,-1 -3,-2 -9,-7 -17,-15 -22,-24 -4,-7 -8,-14 -11,-21zm0 -1c0,0 0,1 0,1 0,0 0,1 -1,1 0,-1 0,-1 1,-2zm8 -143c-6,1 -12,1 -17,6 0,3 0,4 1,6 13,1 29,-6 41,-2 2,3 3,4 3,8 -7,15 -45,62 -46,71l2 3c8,-2 21,-17 26,-24 5,-7 13,-24 21,-25 0,2 1,4 2,6l-2 0c-8,17 -25,70 -40,75l-4 -2c-1,7 5,13 5,21 -29,-65 -27,-152 -10,-218 8,-31 28,-88 58,-105 6,-3 14,-5 21,-2 15,4 26,20 33,32 5,10 19,44 15,55 0,0 0,1 -1,2 -1,-9 -2,-16 -8,-23 0,1 0,2 -1,3 -1,7 -35,53 -40,56 9,-19 21,-58 24,-77 6,5 14,14 16,21 2,-11 -3,-25 -10,-34 -3,-3 -3,-5 -8,-5 -17,11 -15,82 -33,100 8,-14 7,-74 9,-95 0,-7 0,-12 6,-17 5,-2 10,-1 15,0 -2,-5 -3,-7 -8,-8 -7,-3 -16,-3 -24,-3 12,20 3,114 -4,138 -1,3 -2,5 -4,7 1,-8 -4,-14 -4,-23l2 0 4 4c4,-6 -8,-64 -11,-74 -2,-9 -4,-17 -8,-24l-2 0c-3,20 20,87 9,99 -3,1 -4,1 -7,-1 -8,-5 -14,-18 -25,-18 0,3 2,6 4,8 9,13 21,23 30,35 -1,3 -3,6 -5,9 -8,2 -16,3 -23,6 -2,4 2,5 -2,9zm-10 -124c-33,83 -41,193 -4,276 8,19 20,40 40,47 3,1 6,2 10,2 17,-3 29,-18 38,-31 48,-68 64,-184 50,-264 -6,-30 -13,-53 -30,-78 -5,-8 -10,-16 -17,-21 -8,-6 -17,-8 -27,-7 -5,3 -13,5 -18,9 -20,16 -33,44 -42,67zm48 184l1 1c4,4 3,19 4,26 1,15 3,30 6,46 2,9 8,23 8,33 0,3 -1,5 -3,7 -4,4 -11,3 -17,3 -1,0 -3,0 -5,0 -5,0 -8,0 -12,-4 1,-14 5,-29 8,-43 4,-23 7,-46 10,-69zm9 -63c0,2 0,4 0,6 1,5 0,7 -3,12 2,-6 0,-12 3,-18zm0 -1c2,-2 4,-3 7,-5 0,-4 -1,-5 -3,-9l-1 -2c-3,-3 -4,-6 -8,-8 2,0 4,0 6,1 2,-3 3,-6 4,-9 1,3 1,7 1,10 1,1 2,1 3,1l0 0c2,10 4,40 -2,48 0,1 -1,1 -2,2 1,-5 3,-11 3,-16 0,-3 0,-6 -2,-8 0,7 1,15 -4,21 -2,-3 2,-16 -2,-25l0 -1zm-17 7c3,-8 -1,-16 6,-22 5,3 8,10 11,15 -5,0 -8,0 -12,2 -2,6 3,11 2,17l-2 0c-2,-3 -4,-7 -6,-10 0,-1 1,-2 1,-2zm33 -20l-2 -2c0,-4 -1,-11 1,-15 1,-2 8,-6 10,-8 11,-10 30,-27 35,-41l3 1c2,5 6,37 5,43l-4 -5c-15,5 -26,19 -42,23 -2,2 -3,2 -6,4zm0 -33l4 -4c-1,2 -2,2 -4,4zm-3 4l3 -4c-1,2 -1,2 -3,4zm-2 6c-1,1 -3,2 -4,2 0,-6 2,-10 5,-15 0,4 0,7 -1,11l1 1 0 -1 -1 2zm-11 155c3,-20 -3,-42 -3,-62 1,1 2,2 3,3 1,11 6,52 0,59zm14 48c-1,-15 2,-60 -5,-72 2,-4 -3,-47 -4,-52 7,7 27,57 37,73 4,16 -22,25 -26,41l-2 10zm-22 -149l1 -7 2 -1c1,4 0,5 -2,8l-1 0zm22 20c-2,-4 -5,-10 -3,-14l2 -1c18,5 33,29 45,42 1,1 1,1 1,2 3,8 -9,26 -9,35 0,2 -1,3 -3,4 -2,-15 -15,-45 -26,-54 0,-4 -3,-6 -4,-9 -1,-2 -2,-3 -3,-5zm23 -16c-5,-6 -15,-8 -22,-11 -2,-3 -2,-4 -2,-7 5,-9 25,-13 34,-16 6,-3 18,-8 20,-15l2 2c-1,16 0,58 -4,71 -6,-12 -16,-19 -28,-24zm-20 -213c-3,0 -4,0 -7,-3l6 1 1 2zm-25 252l-2 -8 4 -1 2 2 -4 5 0 2zm1 -32l3 -4 0 2 -3 2zm7 10c1,-2 2,-2 4,-2l0 3c0,2 -1,2 -2,4l-3 0c-4,-2 -7,-3 -10,-7 0,0 1,0 1,0 4,2 5,2 10,2z"/>
   <path class="fil4 str0" d="M3489 3062c-13,-34 -32,-68 -52,-98 -6,-9 -15,-16 -20,-25 -2,-4 0,-8 1,-12 35,18 68,41 103,59 -5,19 -13,36 -21,54 -3,7 -7,15 -11,22zm-5 62c65,-92 97,-221 79,-333 -9,-51 -30,-109 -74,-140 -21,-15 -50,-24 -75,-20 -51,7 -91,39 -121,79 -66,87 -97,215 -82,323 8,57 29,123 78,158 21,17 46,23 73,20 51,-8 92,-46 122,-87zm-85 -168c17,8 59,96 84,116 -9,14 -18,27 -28,39 -7,9 -14,17 -22,24 -3,-37 -7,-76 -16,-113 -4,-21 -17,-45 -18,-66zm71 -30c-11,-6 -43,-14 -48,-21 3,-7 17,-7 24,-8 4,-1 8,-2 12,-3 4,0 8,-1 12,-2 5,-1 9,-2 13,-4 4,-1 8,-2 12,-3 3,-2 7,-3 11,-5 4,-1 8,-3 12,-5 4,-2 7,-3 11,-5 4,-2 7,-4 11,-6l0 0c6,15 -10,89 -15,109 -16,-20 -32,-36 -55,-47zm-35 -46c-3,2 -9,6 -13,5 1,-4 2,-6 4,-9 22,-25 49,-46 70,-73 6,-7 12,-15 17,-23 5,-7 9,-16 13,-24 12,25 14,60 15,88 -35,11 -71,22 -106,36zm-15 -17c-3,2 -5,5 -8,5 2,-9 11,-21 15,-29 25,-47 60,-100 60,-155 17,13 28,38 36,57 -36,33 -65,73 -94,111 -3,4 -6,7 -9,11zm-170 248c12,-16 27,-30 40,-46 30,-34 52,-69 72,-109 -3,13 -4,27 -9,40 -10,36 -26,71 -43,105 -10,18 -20,36 -27,55 -12,-12 -29,-29 -33,-45zm164 -180c-5,13 -13,26 -26,31 -5,1 -10,0 -14,0 -2,-2 -4,-4 -5,-6 -7,-9 -10,-21 -8,-33 3,-19 16,-39 32,-51 3,0 7,0 10,1 6,2 11,7 13,12 7,14 4,33 -2,46zm-27 35c9,7 37,155 40,176 -12,11 -25,20 -40,28 -10,5 -21,7 -32,9 17,-40 34,-105 36,-149 1,-21 -1,-43 -4,-64zm-14 -2c3,15 1,33 1,48 -2,60 -10,114 -33,170 -14,-2 -25,-6 -37,-11 -5,-2 -9,-5 -14,-7 32,-34 61,-101 72,-146 4,-18 4,-37 11,-54zm64 -188c-10,26 -16,58 -30,83 13,-60 22,-118 17,-180 0,-6 0,-19 -3,-24 0,-1 -1,-1 -2,-2 -2,0 -2,-1 -4,1 -3,2 -4,5 -4,8 0,17 2,35 2,52 0,14 -1,27 -2,40 -1,14 -3,27 -4,40 -2,13 -4,27 -7,40 -2,13 -5,26 -9,39l0 -2c-2,-17 -2,-34 -3,-50 -1,-5 -1,-9 -2,-14 -1,-4 -1,-9 -2,-13 -1,-5 -2,-9 -3,-13 -1,-5 -2,-9 -3,-13 -1,-5 -3,-9 -4,-13 -2,-4 -3,-9 -5,-13 -1,-4 -3,-8 -5,-12 -1,-5 -3,-9 -5,-13 -4,-7 -8,-18 -15,-24 -1,-1 -3,-1 -5,-2 -3,1 -4,3 -7,5 1,7 16,35 19,44 9,23 29,112 23,134l-2 0c-6,-12 -9,-27 -16,-40 -4,-9 -10,-17 -15,-25 -8,-10 -42,-49 -53,-51 0,-1 -1,-1 -1,-1 -5,4 -6,9 -9,14 10,11 20,21 30,33 24,28 46,61 56,97 -32,-30 -88,-31 -130,-33 -1,8 -2,16 -3,24 24,1 107,13 124,24 0,2 1,2 -1,4 -11,16 -109,55 -134,62l0 20c58,-12 92,-27 138,-66 -26,54 -75,112 -117,154 2,6 5,12 6,17 -15,-17 -26,-81 -28,-105 -1,-17 0,-34 1,-51 6,-84 32,-173 87,-238 27,-32 64,-60 107,-63 25,-2 46,7 64,23 -13,34 -28,68 -41,103z"/>
   <path class="fil4 str0" d="M3388 2952c11,-7 15,-16 17,-29 2,-9 3,-22 -1,-29 -3,-4 -5,-6 -9,-6 0,0 -1,0 -2,0 -11,7 -16,17 -19,30 -2,9 -2,19 3,27 2,4 6,6 11,7z"/>
   <path class="fil4 str0" d="M3807 2113c36,-2 125,-3 158,5 0,0 0,1 0,1 3,13 -9,35 -16,46 -15,3 -31,2 -45,2 -52,0 -103,-1 -154,-3 -5,-9 -8,-19 -9,-29 -1,-5 -1,-11 2,-15 7,-8 53,-7 64,-7zm-35 80c26,0 167,-3 179,-15 10,-10 28,-57 27,-72 -6,-10 -34,-18 -46,-21 -31,-10 -76,-21 -108,-19 -25,6 -55,24 -74,41 -32,30 -30,40 -79,49 -8,22 -8,43 -7,66 0,6 -1,13 1,18 0,-10 -2,-29 4,-36 18,-17 78,-10 103,-11z"/>
   <path class="fil4 str0" d="M3723 2121c7,-19 7,-41 14,-61 27,-75 87,-175 163,-209 35,-16 75,-21 114,-21 8,9 11,31 14,42 20,77 41,168 39,247 0,3 0,6 -2,9 -12,3 -25,5 -37,7 -15,3 -30,7 -45,10 1,5 0,11 -3,15 -1,1 -2,2 -3,3 100,-22 199,-42 299,-59 29,-5 58,-10 87,-14 15,-2 36,-2 50,-7 11,-10 18,-27 19,-41 1,-26 -18,-50 -34,-68 -11,-12 -23,-25 -38,-31 20,11 49,56 55,78 3,11 2,23 -4,33 0,1 -1,2 -2,3 5,-28 -1,-48 -17,-71 -55,-81 -166,-146 -262,-163 -29,-6 -60,-8 -90,-7 9,11 12,30 17,43 23,73 40,146 56,221 2,8 8,29 6,36 0,1 0,1 0,2 -13,-33 -19,-79 -26,-114 -7,-31 -42,-173 -59,-189 -77,1 -149,12 -206,71 -48,50 -107,174 -131,240 -2,6 -4,13 -6,19 12,-5 27,-11 32,-24zm430 -13c3,-24 -58,-258 -74,-277 5,-1 10,0 15,0 56,6 109,22 158,49 8,4 21,10 27,17 0,0 1,1 2,2 3,6 48,178 48,183 -9,1 -17,2 -25,3 -15,4 -32,6 -47,8 -35,5 -70,12 -105,18 0,-1 1,-2 1,-3zm182 -28c6,-16 -34,-152 -41,-174 0,0 1,0 2,1 5,1 10,5 14,8 30,21 63,53 80,86 8,14 16,52 12,67 -4,3 -5,3 -10,4 -12,5 -43,7 -57,8z"/>
   <path class="fil4 str0" d="M2295 3048c-14,-5 -31,-7 -45,-10 -18,-4 -36,-9 -53,-14 -98,-28 -198,-61 -287,-111 0,3 -2,8 1,11 8,10 31,18 43,24 100,47 237,95 346,114 -1,-5 -2,-9 -5,-14z"/>
   <path class="fil4 str0" d="M2198 3002c29,7 59,12 86,20 -1,-5 -3,-11 -6,-16 -101,-22 -203,-51 -298,-93 -26,-11 -51,-22 -75,-36 -1,4 -2,9 0,13 9,10 37,21 50,26 79,36 160,63 243,86z"/>
   <path class="fil4 str0" d="M2189 2963c27,7 53,13 80,19 -2,-6 -3,-12 -5,-18 -24,-3 -47,-10 -70,-15 -36,-9 -71,-19 -106,-30 -34,-11 -68,-24 -102,-37 -28,-12 -57,-29 -85,-38 0,4 -2,9 1,13 9,11 42,22 55,28 25,10 51,20 76,29 26,10 52,18 78,26 26,9 52,16 78,23z"/>
   <path class="fil4 str0" d="M2200 2927c17,4 34,7 51,11 0,-4 0,-10 -3,-13 -2,-2 -5,-3 -8,-4 -11,-3 -23,-5 -34,-7 -27,-6 -53,-13 -79,-20 -83,-23 -152,-46 -229,-85 -1,4 -2,6 0,10 7,13 35,22 48,28 82,35 167,60 254,80z"/>
   <path class="fil7 str2" d="M3050 3193c14,7 17,7 17,7"/>
   <line class="fil7 str2" x1="1808" y1="2708" x2="1807" y2= "2687" />
   <path class="fil4 str0" d="M2453 3086c-22,1 -45,13 -67,18 18,-11 41,-17 61,-24 -19,-30 -41,-59 -62,-89 -12,-18 -23,-39 -38,-55 -12,-2 -56,-5 -62,-12l-1 -4 2 -2c87,13 174,20 261,25 44,3 89,9 133,7 -19,17 -36,36 -38,62 -1,22 9,45 24,61 9,9 19,17 31,22 29,12 58,14 88,1 20,-9 36,-24 44,-45 7,-18 7,-34 2,-52 37,35 67,76 96,118 -109,10 -239,-2 -349,-15 -22,-3 -44,-6 -66,-9 -19,-3 -40,-9 -59,-7zm646 28c3,2 4,3 5,6 -3,-2 -3,-3 -5,-6zm-8 -11c3,3 6,5 8,10 -4,-3 -6,-6 -8,-10zm-5 -6c3,2 4,3 5,6 -3,-1 -3,-3 -5,-6zm-820 -189c12,45 33,90 52,133 9,20 21,41 27,62 -133,-26 -266,-64 -389,-124 -16,-8 -45,-19 -55,-34 -13,-20 -18,-111 -20,-140 -1,-10 -2,-22 -4,-31 -3,-9 -15,-11 -22,-17 -14,-15 -39,-43 -47,-62 0,-1 0,-1 -1,-1l1 10c6,8 9,18 15,25 8,11 20,19 29,29 19,19 22,100 22,129 -12,-16 -21,-34 -31,-51 -10,21 -23,40 -31,62 19,35 64,63 98,83 53,30 111,53 169,74 196,71 403,105 611,119 63,5 129,10 192,5 71,-5 141,-26 209,-44l19 -5c0,15 0,31 -2,46 -3,1 -6,2 -10,4 -15,5 -31,10 -47,14 3,1 5,2 7,3 13,-4 48,-12 54,-20 4,-18 3,-39 3,-58 1,-26 2,-53 5,-79 15,-146 75,-358 205,-443 34,-23 78,-35 119,-26 39,8 74,38 95,70 54,83 62,196 47,292 31,-5 63,-23 93,-36l143 -60 400 -166c28,-11 55,-26 83,-37 11,-4 22,-9 33,-11 16,-3 33,-1 47,-7 4,-2 10,-5 12,-8 9,-13 14,-76 18,-95 14,-73 36,-159 88,-214 9,-10 21,-21 35,-24 9,-2 18,0 26,5 26,18 38,58 43,87 3,17 14,71 6,85 11,-9 14,-20 15,-34 2,-49 -10,-128 -45,-166 -9,-11 -22,-17 -36,-17 -20,-1 -37,10 -51,23 -52,51 -75,141 -92,209 -5,17 -8,43 -18,56 -27,37 -43,59 -81,85 -63,43 -160,77 -232,104 -81,32 -163,62 -245,92 -72,26 -146,51 -217,80 13,-94 -5,-212 -63,-289 -29,-38 -69,-67 -117,-74 -50,-7 -99,11 -139,42 -115,87 -185,273 -204,412 -3,27 -13,90 -7,113 1,3 3,6 5,9 -3,-3 -7,-8 -11,-8 -13,0 -47,9 -61,12 -26,5 -52,9 -77,14 -36,-50 -83,-124 -138,-153 -14,-7 -30,-11 -45,-14 -41,-7 -83,-7 -125,-10 -84,-4 -167,-10 -251,-17 -37,-4 -76,-5 -112,-13zm397 144c-10,-16 -15,-33 -11,-51 5,-21 21,-37 39,-48 0,0 1,0 2,0 40,-2 99,14 129,39 3,16 5,32 0,48 -6,23 -22,37 -42,48 -19,7 -38,10 -58,5 -2,0 -3,0 -5,-1 -1,0 -3,-1 -4,-1 -2,-1 -3,-1 -5,-2 -1,0 -2,-1 -4,-1 -1,-1 -3,-2 -4,-2 -1,-1 -3,-2 -4,-3 -1,0 -3,-1 -4,-2 -1,-1 -3,-2 -4,-3 -1,0 -3,-1 -4,-2 -1,-1 -2,-2 -3,-3 -2,-1 -3,-2 -4,-3 -1,-2 -2,-3 -3,-4 -1,-1 -2,-2 -3,-3 -1,-1 -2,-3 -3,-4 -1,-1 -2,-2 -3,-4 -1,-1 -2,-2 -2,-3z"/>
   <path class="fil5 str0" d="M2710 3034c1,1 1,2 1,3 1,1 1,2 2,3 0,1 1,1 1,2 1,1 1,2 2,3 0,1 1,2 1,2 1,1 1,2 2,3 1,1 1,1 2,2 1,1 1,2 2,2 1,1 1,2 2,2 1,1 2,2 2,2 1,1 2,2 3,2 0,1 1,2 2,2 1,1 2,1 3,2 0,0 1,1 2,1 1,1 2,1 3,2 1,0 2,1 2,1 13,6 25,5 38,4 15,-5 27,-12 34,-26 6,-12 6,-26 1,-39 -6,-16 -19,-29 -35,-37 -1,0 -3,-1 -4,-1 -1,-1 -3,-1 -4,-2 -2,0 -3,0 -4,-1 -2,0 -3,0 -5,-1 -1,0 -2,0 -4,0 -1,0 -3,0 -4,0 -2,0 -3,0 -5,0 -1,0 -2,0 -4,0 -15,5 -28,13 -35,28 -6,13 -6,28 -1,41z"/>
   <path class="fil4 str0" d="M4537 2167c8,21 16,37 31,54 6,8 14,14 20,22 0,0 0,-1 0,-2 -1,-8 -43,-69 -51,-74z"/>
   <path class="fil4 str0" d="M5025 2420l-247 0c-34,25 -50,73 -47,126 17,12 30,12 53,15 19,3 39,7 58,9 42,6 75,15 114,23 14,12 23,5 29,26 0,8 -2,11 -3,13 -27,4 -70,-9 -90,-3 1,17 46,21 66,22 36,2 48,-6 64,-26 26,-33 47,-82 41,-140 -2,-17 -18,-43 -38,-65z"/>
   <path class="fil4 str0" d="M4696 2541c10,-2 9,-5 12,-15 3,-9 3,-13 3,-23 -12,5 -15,24 -15,38z"/>
   <path class="fil4 str0" d="M4979 2697c-18,7 -84,-6 -104,-9 -36,-6 -107,-19 -141,-16 2,4 -3,6 13,10l125 21c25,4 90,13 116,3 8,-3 20,-11 19,-18 -8,-3 -20,6 -28,9z"/>
   <path class="fil4 str0" d="M5106 2790c-94,-9 -193,-25 -284,-44 -56,-12 -92,-40 -91,-11 1,20 77,28 100,31 39,6 76,13 114,18 39,5 78,10 117,16 12,2 117,25 103,-2 -5,-9 -45,-7 -59,-8z"/>
   <path class="fil4 str0" d="M4914 2741c30,6 103,23 124,16 -14,-11 -118,-31 -137,-23 3,7 2,5 13,7z"/>
   <path class="fil4 str0" d="M5153 2835l-178 -28c-25,-4 -175,-35 -188,-26 4,6 9,6 19,8 95,21 234,43 331,55 3,1 20,3 21,0 0,-1 1,0 2,-1 -2,-10 2,-4 -7,-8z"/>
   <path class="fil4 str0" d="M5032 2718c3,24 73,35 94,27 1,-13 -69,-45 -94,-27z"/>
   <path class="fil4 str0" d="M5300 2790c-52,-4 -31,6 -53,11 -17,4 -42,-1 -57,7 -1,16 20,15 35,18 40,7 109,19 145,20l-2 -20c14,-4 22,0 29,-6 -15,-16 -68,-27 -97,-30z"/>
   <path class="fil4 str0" d="M5361 2866c-31,-6 -135,-25 -155,-17 10,13 124,20 154,25 13,2 37,13 47,6 -5,-12 -32,-12 -46,-14z"/>
   <path class="fil4 str0" d="M5209 2883c-12,-10 -51,0 -68,-5 -15,-5 -29,-27 -54,-17 -8,17 45,32 51,34 15,3 67,6 71,-12z"/>
   <path class="fil4 str0" d="M5208 2926c-12,0 -13,0 -23,3 -1,0 -9,3 -9,3 -9,4 -3,-1 -5,7 7,2 35,7 37,-13z"/>
   <path class="fil4 str0" d="M5252 2922c-23,34 -61,57 -110,47 -61,-13 -88,-99 -108,-103 1,21 32,65 42,77 46,56 123,57 161,15 13,-15 44,-41 45,-71l-24 -6c1,20 7,23 -6,41z"/>
   <path class="fil4 str0" d="M5248 2756c10,-1 24,-6 34,-7 16,-1 58,24 62,-3 -12,-9 -44,-13 -62,-14 -23,-1 -55,-5 -62,12 4,11 7,16 28,12z"/>
   <path class="fil4 str0" d="M5226 2696c13,6 71,12 86,6 5,-6 6,-16 7,-25l15 0c6,10 6,15 10,26 3,13 3,16 18,15 4,-22 -7,-50 -16,-66 -11,-23 -19,-33 -49,-33 -16,2 -54,10 -63,18 -27,5 -63,19 -50,56 8,-3 7,-5 12,-14 19,-31 22,12 30,17z"/>
   <path class="fil4 str0" d="M5175 2612c12,-26 22,-57 37,-74 26,7 17,62 40,67 3,-28 -11,-99 -24,-117 -7,-10 -27,-33 -42,-14 -23,28 7,25 16,36 -18,26 -18,-6 -50,71 -7,16 -35,71 -34,86 11,-1 8,-6 20,-10 10,-2 12,0 19,-8 6,-9 13,-25 18,-37z"/>
   <path class="fil4 str0" d="M5130 2559c7,-25 -12,-38 -24,-4 -3,10 -4,22 8,24 11,2 13,-9 16,-20z"/>
   <path class="fil4 str0" d="M5085 2466c7,10 12,20 25,18 2,-21 -18,-31 -29,-48 5,-7 8,-5 13,-11 -2,-30 -23,-9 -30,-7 -6,-11 -10,-22 -19,-27 -8,13 29,59 40,75z"/>
   <path class="fil4 str0" d="M5358 2521c-22,-2 -74,-12 -93,-7 1,12 5,11 18,13 40,8 147,24 179,25 50,1 60,2 98,-18 17,-10 62,-35 64,-51 -21,-11 -55,23 -70,31 -30,15 -58,12 -94,12 -35,0 -68,-1 -102,-5z"/>
   <path class="fil4 str0" d="M5394 2560c-11,-3 -37,-3 -44,1 6,7 45,14 54,7 -1,-7 0,-6 -10,-8z"/>
   <path class="fil4 str0" d="M5311 2563c1,-8 1,-9 -7,-11 -5,-1 -9,0 -15,0 1,12 10,14 22,11z"/>
   <path class="fil4 str0" d="M5485 2621c-12,8 -31,17 -40,27 -10,10 -20,33 -11,48 15,6 42,4 61,4 26,-1 21,-11 38,-24 26,-21 27,-14 54,-43 9,-10 9,-5 21,-10l1 -12c4,-7 -1,-3 6,-5l9 8c8,10 35,3 35,-23 0,-17 -1,-48 -8,-59 -24,1 -38,24 -50,39l-14 0c0,0 -1,1 -1,1l-8 12c-13,-2 -13,-5 -27,1l-66 36z"/>
   <path class="fil4 str0" d="M5657 2767c-21,-36 -35,-35 -105,-35 -1,57 24,66 67,84 24,10 89,35 118,24 -2,-7 -19,-15 -28,-18 -3,-6 -31,-24 -36,-27 -1,-2 -13,-23 -16,-28z"/>
   <path class="fil4 str0" d="M5564 2698c16,6 44,5 64,8 31,3 26,21 43,26 1,-18 -7,-44 -9,-63 -4,-40 17,-18 38,-32 -8,-49 -107,30 -125,44 -7,5 -10,6 -11,17z"/>
   <path class="fil4 str0" d="M5605 2833l-41 -22c-9,-5 -16,-12 -21,-21 -5,-8 -7,-19 -16,-24 -6,30 9,43 28,54 15,10 40,22 60,23 -2,-8 -2,-6 -10,-10z"/>
   <path class="fil4 str0" d="M5478 2776c7,-4 13,-12 13,-22 -7,-5 -8,-7 -19,-5 -8,12 -8,22 6,27z"/>
   <path class="fil4 str0" d="M5424 2777c2,-6 2,-37 -13,-42 -18,35 -23,22 -20,44l33 -2z"/>
   <path class="fil4 str0" d="M5491 2907c-7,-2 -54,-19 -49,1 1,5 95,50 92,24 -1,-12 -31,-20 -43,-25z"/>
   <path class="fil4 str0" d="M5467 2862c8,10 35,36 48,30 -1,-10 -5,-8 -13,-14 -29,-22 -29,-33 -47,-35 1,11 5,12 12,19z"/>
   <path class="fil4 str0" d="M5588 2914c-2,14 8,28 24,26 15,-2 93,-44 91,-57l-9 -3c-26,-2 -24,18 -41,27 -27,15 -38,4 -65,7z"/>
   <path class="fil4 str0" d="M5557 2861c0,6 6,15 17,14 4,-13 -1,-26 -15,-23 -1,2 -4,-3 -2,9z"/>
   <path class="fil4 str0" d="M5765 2947c-15,1 -27,7 -44,7 -17,1 -34,-1 -51,-1 5,5 -5,2 8,8l36 5c17,0 36,2 51,-3l0 -16z"/>
   <path class="fil4 str0" d="M5798 2911c-18,22 9,56 51,49 4,4 0,2 9,3 38,6 130,9 113,-41 -3,-10 -9,-21 -22,-19 -13,2 -16,12 -24,19 -10,8 -19,3 -33,1 -5,-1 -34,-4 -34,1 -8,2 -17,4 -22,9 -11,2 -18,9 -25,-1 -5,-5 -7,-16 -13,-21z"/>
   <path class="fil4 str0" d="M5881 2871l28 3c13,0 30,1 37,-5 -6,-12 -62,-15 -72,-3 3,4 1,3 7,5z"/>
   <path class="fil4 str0" d="M6013 2909c-8,5 -14,12 -11,24l29 4c8,11 8,20 26,22 15,1 27,1 43,3 24,4 58,16 78,16 -2,-14 -18,-33 -25,-45 -8,-13 -16,-37 -24,-46 -14,5 -13,11 -29,14 -8,-1 -11,-4 -16,-7 -3,-11 -10,-28 -4,-41 7,-15 35,-10 40,-26 -10,-10 -25,-7 -35,-19 -7,-10 -10,-28 -11,-41 -3,-47 35,-42 42,-62 -13,-10 -94,-13 -104,-7 5,12 22,17 30,26 11,16 -8,25 -15,31 -12,10 -8,31 0,40 8,9 20,14 21,32 -15,5 -23,8 -32,19 4,21 18,18 18,47 -8,5 -13,10 -21,16z"/>
   <path class="fil4 str0" d="M5863 2838c31,3 28,-17 43,-22 23,3 10,31 42,25 23,-35 -25,-37 -49,-39 -30,-3 -61,-7 -91,-8l-20 -1 -66 0c-1,11 4,14 9,19 14,-1 11,-9 31,-8 12,16 15,31 45,27 8,-10 8,-21 21,-25 17,9 9,30 35,32z"/>
   <path class="fil4 str0" d="M5823 2761c22,1 47,6 69,3 13,-1 18,-7 30,-1 11,6 13,10 26,3 4,-16 -7,-16 -21,-18 -63,-7 -112,-8 -173,-12 -12,-1 -23,-2 -35,-2 -29,0 -26,1 -28,11 16,3 46,6 64,9 23,3 45,5 68,7z"/>
   <path class="fil4 str0" d="M5740 2719c51,4 101,7 152,12 22,2 63,7 57,-24 -4,-16 -29,-9 -31,-7 -6,3 -11,14 -21,18 -24,-8 -6,-34 -62,-27 -8,8 -6,20 -21,19 -14,0 -12,-12 -21,-20 -7,-6 -25,-6 -32,1 -6,7 -7,20 -24,14 -13,-4 -8,-19 -16,-26 -10,-9 -26,0 -29,8 -11,31 26,30 48,32z"/>
   <path class="fil4 str0" d="M5753 2655l177 8c21,-1 18,-3 21,-7 -4,-7 0,-4 -10,-7 -31,-8 -144,-10 -178,-7 -24,1 -19,3 -21,7 3,3 -6,4 11,6z"/>
   <path class="fil4 str0" d="M5860 2597l45 0c46,-2 68,-2 105,-20 35,-17 115,-70 148,-93 11,-8 25,-17 21,-38 -1,-8 -2,-17 -4,-26l-68 0c-1,1 -2,2 -3,3 -24,18 -36,31 -38,55l-2 8c-8,1 -33,12 -40,19l-30 31c-56,58 -199,37 -277,30l-21 0c-5,1 -2,0 -5,2 -8,18 58,21 73,22 32,4 63,6 96,7z"/>
   <path class="fil4 str0" d="M5745 2471c38,3 191,13 207,4 -3,-6 2,-4 -9,-6l-43 -3c-27,-1 -166,-11 -179,-4 2,3 -5,3 9,7 3,1 12,1 15,2z"/>
   <path class="fil4 str0" d="M5597 2400c8,-9 39,-39 41,-49 -16,-1 -22,2 -37,-3 -16,-4 -17,-4 -35,-5l-41 7c-91,7 -74,-6 -135,-8 4,9 4,7 25,14 30,10 62,29 85,26 7,5 26,4 37,5 19,2 19,2 10,15l-6 19c24,18 47,-11 56,-21z"/>
   <path class="fil4 str0" d="M5707 2370c-16,2 -49,40 -59,55 -5,9 -12,16 -12,28 12,9 28,14 48,11 15,-29 13,-56 18,-71 3,-10 7,-11 5,-23z"/>
   <path class="fil4 str0" d="M5964 2728c1,16 2,35 4,51 2,18 2,35 3,53 1,8 2,16 3,25 3,22 5,17 10,18 10,-14 -2,-78 -4,-98 -2,-20 -2,-89 -9,-101 0,1 -3,-1 -5,11l-2 41z"/>
   <path class="fil4 str0" d="M6217 2757c1,22 -1,24 -11,35 -16,4 -14,3 -31,5 -11,15 -31,47 -9,64 11,-5 6,-7 12,-17 24,7 3,10 51,0 8,-14 15,-21 23,-40 6,-14 10,-30 15,-44 8,-20 2,-26 -8,-42 -6,-10 -22,-28 -29,-32 -5,4 -7,11 -14,11 -8,1 -5,-5 -18,-6 -3,4 -3,-1 -1,7 -3,2 -1,-1 -5,3 -2,3 -1,2 -3,5 -16,3 -26,27 -14,42 10,-4 2,-4 9,-11 4,-5 25,-14 33,20z"/>
   <path class="fil4 str0" d="M6227 2874c-11,-3 -22,1 -32,3 -20,4 -21,3 -25,10 7,5 55,2 57,-13z"/>
   <path class="fil4 str0" d="M6231 2910c-8,-4 -23,-1 -32,1 -18,4 -20,5 -21,13 12,6 34,0 45,-5 7,-3 6,-3 8,-9z"/>
   <path class="fil4 str0" d="M6260 2869c-1,13 -2,28 5,39 14,0 29,-16 22,-33 -3,-8 -7,-7 -10,-18 -2,-7 -2,-17 -4,-23 -12,3 -12,16 -13,35z"/>
   <path class="fil4 str0" d="M6325 2871c-19,13 -5,88 0,112 7,39 17,62 36,91 30,45 82,89 145,112 105,37 208,-8 259,-102 8,-14 43,-75 30,-92 -10,0 -5,-4 -9,7l-11 35c-6,14 -13,28 -20,40 -16,31 -29,49 -53,67 -18,13 -57,35 -84,39 -69,9 -136,-13 -188,-53 -20,-15 -44,-39 -58,-62 -54,-88 -31,-173 -47,-194z"/>
   <path class="fil4 str0" d="M6352 2851c45,16 69,-5 84,-5 6,6 9,14 16,18 5,-8 -4,-24 -8,-35 -11,-29 -39,-78 -34,-103 7,1 21,31 25,38 11,20 68,118 63,130 -13,14 -27,7 -27,24 15,5 41,-18 46,-28 -7,-15 -15,-29 -23,-44 -9,-16 -15,-29 -23,-45 -14,-28 -31,-59 -42,-89 -49,-121 -41,-75 -74,-125 -11,-17 -6,-35 -13,-51 -13,1 -11,5 -10,20 1,33 10,46 16,72 6,10 16,40 15,54 -6,14 -4,7 -16,13l4 22c-35,8 -25,48 -15,54 8,-9 4,-17 7,-30 24,-10 27,8 37,15 16,40 -10,27 -31,38 10,15 33,1 59,21 0,32 -20,28 -43,26 -3,0 -10,-1 -12,-1 -5,1 -3,1 -6,2l-4 1c3,7 -1,5 9,8z"/>
   <path class="fil4 str0" d="M6293 2703c22,-28 7,-54 -32,-40 -1,15 19,38 32,40z"/>
   <path class="fil4 str0" d="M6208 2637c18,0 10,-9 66,-13 4,-46 -12,-93 -58,-61 -44,31 -63,61 -89,89 -7,8 -15,16 -7,21 7,4 24,-2 28,-5 9,-7 5,-14 8,-27 3,-14 52,-68 68,-67 1,23 -17,41 -16,63z"/>
   <path class="fil4 str0" d="M6194 2557c15,-12 60,-49 59,-67 -6,1 -62,47 -71,55 -44,37 -70,36 -66,59 20,4 64,-37 78,-47z"/>
   <path class="fil4 str0" d="M6297 2478c9,22 12,22 20,19 4,-10 -1,-22 -4,-32 -4,-13 -5,-22 -17,-21 -7,10 -3,23 1,34z"/>
   <path class="fil4 str0" d="M6313 2585c-6,-29 -23,-40 -15,1 2,13 2,17 14,13l1 -14z"/>
   <path class="fil4 str0" d="M6375 2553c2,5 5,9 8,13 4,6 4,7 12,9 7,-13 -14,-51 -28,-56 0,13 3,24 8,34z"/>
   <path class="fil4 str0" d="M6483 2614c-10,3 -44,7 -49,9 1,12 2,10 16,10 16,0 53,-3 64,-10 -7,-6 -12,-15 -22,-23 -21,-17 -12,3 -9,14z"/>
   <path class="fil4 str0" d="M6460 2651c-7,-3 -4,-3 -11,0 -3,8 1,10 11,9l0 -9z"/>
   <path class="fil4 str0" d="M6424 2453c16,11 16,36 33,43 4,-10 -15,-44 -21,-53 -8,-11 -14,-11 -21,-18 -4,-5 -10,-18 -18,-17 -3,5 -2,9 -2,9 2,16 16,28 29,36z"/>
   <path class="fil4 str0" d="M6678 2730c-19,9 -36,-5 -31,61 7,4 25,15 30,17 7,-10 10,-30 13,-42 10,-39 8,-16 23,-25 -4,-11 -28,-30 -42,-31 0,13 10,5 7,20z"/>
   <path class="fil4 str0" d="M6571 2730c17,-9 20,0 22,-12 1,-2 0,-4 0,-7 -25,-18 -35,9 -35,31 1,12 1,12 13,13l0 -25z"/>
   <path class="fil4 str0" d="M6536 2811c-8,1 -11,2 -11,11l11 1 0 -12z"/>
   <path class="fil4 str0" d="M6617 2961c6,45 -15,39 -52,46l-3 21 -36 -2c3,8 2,6 11,11 42,19 35,-5 68,-24 9,-6 18,-11 23,-18 6,-9 7,-18 3,-30 -5,-20 0,-17 2,-34 3,-23 -4,-55 -24,-58 -3,14 10,22 10,40 0,16 -5,28 -2,48z"/>
   <path class="fil4 str0" d="M6500 2953c-7,12 34,22 47,15 -2,-7 -15,-24 -21,-30 -10,6 -1,9 -16,12 -8,1 -7,-4 -10,3z"/>
   <path class="fil4 str0" d="M6461 2954c2,-13 -3,-16 -10,-21 -6,-5 -13,-10 -21,-5 4,10 5,8 13,15 6,5 9,10 18,11z"/>
   <path class="fil4 str0" d="M6493 2995c-1,-13 -4,-20 -17,-20 0,11 6,21 17,20z"/>
   <path class="fil4 str0" d="M6480 3025c1,-10 -14,-32 -24,-30 2,9 13,28 24,30z"/>
   <path class="fil4 str0" d="M6405 3017c19,-56 -41,-64 -10,-8 4,8 3,6 10,8z"/>
   <path class="fil4 str0" d="M6529 3102c-13,-6 -22,-9 -35,-16 -23,-14 -47,-39 -60,-41 -2,11 14,25 20,30 12,12 78,70 90,57 11,-12 -8,-26 -15,-30z"/>
   <path class="fil4 str0" d="M6575 3112c-6,12 -1,20 6,31 7,11 15,16 32,11 0,-1 1,-1 0,-4 0,-3 -23,-37 -38,-38z"/>
   <path class="fil4 str0" d="M6614 3091c-2,17 17,41 26,46 26,12 24,-19 39,-28 24,-12 24,8 47,-25 7,-10 24,-32 24,-45 -15,-3 -24,6 -34,12 -72,50 -51,21 -102,40z"/>
   <path class="fil4 str0" d="M6722 3021c13,1 32,2 41,-6 11,-8 29,-66 -13,-45 -10,6 -22,10 -31,17l3 34z"/>
   <path class="fil4 str0" d="M6693 2957c11,-6 7,-20 3,-29l-9 1c-3,9 -5,23 6,28z"/>
   <path class="fil4 str0" d="M6723 2928c-3,2 -11,1 -6,20 12,1 12,-11 6,-20z"/>
   <path class="fil4 str0" d="M6708 2885c10,-2 12,-5 10,-16 -1,-8 -2,-11 -9,-15 -12,9 -5,22 -1,31z"/>
   <path class="fil4 str0" d="M6719 2774c-10,14 33,74 40,117 2,14 2,34 10,42 32,-25 -34,-149 -50,-159z"/>
   <path class="fil4 str0" d="M6496 2385c23,-9 44,-14 47,-28 -7,-5 -25,-5 -34,-3 -15,4 -6,14 -20,18 -6,2 -29,3 -37,3 -14,2 -24,1 -22,16 16,4 52,-1 66,-6z"/>
   <path class="fil4 str0" d="M6492 2267c6,20 21,42 38,46 13,-12 11,-36 5,-57l0 1 -44 0c0,4 1,7 1,10z"/>
   <path class="fil4 str0" d="M6464 2265c1,-2 1,-5 1,-8l-11 0c1,5 3,7 10,8z"/>
   <path class="fil4 str0" d="M6467 2326c-10,-16 -42,-7 -54,-19 -12,-12 -8,-23 -36,-38 -6,-3 -14,-7 -22,-11 1,4 1,9 2,13 46,20 23,22 47,49 11,13 47,10 63,6z"/>
   <path class="fil4 str0" d="M6571 2196c-2,20 10,42 8,81 0,9 -4,20 3,25 9,-9 7,-44 6,-56 -2,-17 -1,-48 -17,-50z"/>
   <path class="fil4 str0" d="M6533 2158c6,-3 9,-3 14,-6 -2,-11 -11,-24 -20,-33 1,14 3,27 4,40 0,0 1,0 2,-1z"/>
   <path class="fil4 str0" d="M6756 2647c7,-21 -64,-50 -81,-56 -19,-7 -100,-26 -117,-15 7,8 37,13 50,17 39,12 135,58 148,54z"/>
   <path class="fil4 str0" d="M6517 2031c11,-2 17,-13 14,-27 -2,-11 -10,-21 -21,-22 -3,15 -3,39 7,49z"/>
   <path class="fil8" d="M2676 4012c-4,2 -63,83 -91,83 -63,0 68,-250 82,-280 0,-2 -1,-3 -3,-3 -31,-5 -63,-3 -93,3 -2,1 -6,2 -6,5 0,3 4,8 -1,25 -7,-9 -30,-37 -77,-37 -77,1 -166,27 -225,163 -49,114 -26,233 56,243 61,8 113,-36 151,-73 -11,88 57,79 85,65 61,-29 123,-130 139,-159 8,-15 -13,-37 -17,-35z"/>
   <path class="fil8" d="M2311 3534c-5,2 -27,42 -27,42 -27,46 -50,92 -100,181 -94,166 -209,409 -296,490 -63,59 -117,48 -142,25 -37,-34 -31,-93 -54,-136 -8,-13 -24,-16 -34,-7 -17,15 -48,37 -95,56 -49,19 -126,19 -163,53 -9,8 -11,20 -7,32 15,40 65,149 185,217 102,57 305,64 434,-123 121,-178 235,-498 283,-602 49,-107 90,-192 104,-219 2,-5 0,-11 -5,-13 -20,-7 -76,1 -83,4z"/>
   <path class="fil4" d="M2530 3919c-9,23 -35,94 -41,112 -73,92 -153,55 -102,-68 30,-74 137,-153 143,-44z"/>
   <path class="fil8" d="M3030 4016c-2,-5 -4,-5 -5,-3 -3,3 -3,4 -4,5 -38,48 -79,101 -120,127 47,-102 92,-199 136,-296 10,-24 -19,-40 -48,-37 -24,1 -43,4 -62,6 -2,1 -7,3 -7,7 0,5 13,12 -2,47 0,1 -86,192 -88,196 -11,20 -45,73 -74,54 -22,-14 6,-76 30,-137 24,-57 51,-119 59,-136 10,-24 -18,-40 -48,-37 -36,1 -56,5 -61,6 -3,1 -8,3 -8,7 0,5 13,12 -1,47 -29,66 -58,123 -78,183 -49,141 50,194 140,137 -3,5 -7,13 -13,23 -87,28 -212,65 -212,171 0,63 51,98 116,87 89,-18 159,-186 194,-257 87,-52 146,-131 170,-168 3,-3 -9,-24 -14,-32z"/>
   <path class="fil8" d="M2703 4282c16,-9 35,-16 53,-22 -7,18 -41,84 -58,90 -29,9 -42,-42 5,-68z"/>
   <path class="fil8" d="M3466 4009c-21,29 -42,65 -71,86 35,-57 -44,-138 -59,-166 -17,-32 -11,-63 8,-75 21,-13 47,9 36,28 -8,13 -21,7 -27,1 -2,-2 -5,-2 -8,1 -2,5 -4,11 -2,24 5,19 34,38 69,18 35,-19 30,-72 16,-95 -16,-25 -50,-43 -106,-30 -61,14 -77,76 -77,76 -14,49 -55,114 -85,153 -2,5 8,15 16,22 -13,21 -19,52 -13,89 14,70 106,93 177,57 62,-29 105,-91 146,-154 5,-7 -16,-39 -20,-35z"/>
   <path class="fil4" d="M3241 4020c0,-4 -1,-6 -5,-7 -7,0 -14,1 -22,4 17,-27 31,-53 45,-80 5,9 18,33 28,50 54,84 -61,107 -46,33z"/>
   <path class="fil8" d="M4590 3321c-12,-1 -22,9 -23,22 -41,170 -253,107 -416,90 -21,-1 -150,-11 -223,28 -8,6 -6,18 3,22 12,5 35,12 48,22 23,17 33,44 45,54 8,5 18,3 23,-4 40,-49 95,-36 147,-26 -26,67 -124,274 -197,365 -118,148 -226,215 -296,261 -46,31 -121,112 -63,115 32,1 78,9 115,33 39,27 54,48 89,58 12,3 25,-2 33,-11 34,-48 138,-195 204,-329 71,-150 166,-395 187,-476 126,23 380,82 408,-106 11,-77 -44,-114 -84,-118z"/>
   <path class="fil8" d="M4492 4016c-1,-3 -5,-3 -8,2 -6,9 -65,91 -78,65 -12,-23 25,-100 65,-189 20,-44 13,-70 9,-81 -2,-2 -5,-4 -8,-3 -56,21 -180,21 -218,-31 -5,-8 -11,-6 -15,-4 -46,17 -42,120 -1,134 -12,43 -40,83 -67,122 -4,8 22,31 24,29 33,-40 67,-90 87,-137 23,5 52,1 77,-7 -19,39 -146,285 -21,299 77,7 145,-120 173,-171 3,-7 -7,-16 -19,-28z"/>
   <path class="fil8" d="M4907 4012c-3,2 -62,83 -91,83 -62,0 68,-250 82,-280 0,-2 -1,-3 -2,-3 -32,-5 -64,-3 -94,3 -2,1 -5,2 -5,5 0,3 3,8 -1,25 -7,-9 -30,-37 -78,-37 -76,1 -166,27 -224,163 -50,114 -26,233 56,243 60,8 113,-36 150,-73 -10,88 58,79 85,65 61,-29 124,-130 139,-159 8,-15 -13,-37 -17,-35z"/>
   <path class="fil4" d="M4762 3919c-9,23 -36,94 -42,112 -73,92 -152,55 -102,-68 30,-74 137,-153 144,-44z"/>
   <path class="fil8" d="M5266 4012c-13,17 -80,109 -102,108 -12,-1 13,-57 36,-113 13,-32 60,-121 33,-172 -31,-60 -143,-4 -170,33 32,-78 -57,-59 -100,-51 -3,0 -8,2 -8,6 0,3 7,9 5,25 -37,95 -72,182 -107,268 -19,44 23,99 53,99 20,0 34,-3 37,-4 3,0 7,-2 7,-6 0,-5 -7,-18 1,-50 6,-29 61,-160 64,-166 11,-18 67,-77 94,-59 24,16 -44,123 -57,178 -21,83 18,112 66,107 64,-7 97,-57 128,-103 22,-31 39,-62 43,-68 1,-2 1,-2 1,-3 -2,-5 -22,-31 -24,-29z"/>
   <path class="fil8" d="M5558 4009c-21,29 -42,65 -70,86 35,-57 -45,-138 -60,-166 -17,-32 -11,-63 8,-75 22,-13 48,9 36,28 -8,13 -21,7 -27,1 -2,-2 -5,-2 -8,1 -2,5 -4,11 -1,24 4,19 33,38 69,18 35,-19 30,-72 15,-95 -15,-25 -49,-43 -105,-30 -62,14 -78,76 -78,76 -13,49 -55,114 -85,153 -2,5 8,15 16,22 -13,21 -19,52 -13,89 14,70 106,93 177,57 62,-29 105,-91 147,-154 4,-7 -17,-39 -21,-35z"/>
   <path class="fil4" d="M5333 4020c0,-4 -1,-6 -5,-7 -7,0 -14,1 -21,4 16,-27 30,-53 44,-80 5,9 18,33 29,50 53,84 -62,107 -47,33z"/>
   <path class="fil8" d="M5972 4015c-2,-4 -5,-2 -8,2 -16,22 -36,43 -59,47 7,-19 14,-40 19,-65 22,-121 -21,-179 -61,-186 -83,-14 -131,36 -136,41 -1,2 0,-4 1,-6 10,-24 -19,-40 -48,-37 -36,1 -56,5 -61,6 -6,1 -9,5 -7,9 1,3 5,8 5,18 0,17 -25,66 -34,89 -36,78 -167,367 -189,433 -9,25 8,56 41,56 21,1 44,1 63,-6 7,-2 9,-4 9,-7 0,-4 -14,-12 1,-46 39,-90 71,-166 105,-246 0,0 13,77 86,95 44,11 126,-12 179,-95 44,-7 76,-27 102,-59 13,-15 4,-26 -8,-43z"/>
   <path class="fil8" d="M5665 4078c-13,-33 -4,-64 -4,-64 0,0 5,-12 11,-26 12,44 36,84 71,107 -23,9 -66,17 -78,-17z"/>
   <path class="fil4" d="M5819 3993c-4,20 -12,38 -21,53 -37,-29 -84,-127 -29,-156 32,-10 61,38 50,103z"/>
   <path class="fil8" d="M6344 4012c-1,-1 -4,-2 -5,-1 -9,12 -35,44 -73,58 25,-52 32,-103 32,-141 0,-93 -75,-112 -75,-112 0,0 -124,-42 -217,89 0,0 -75,101 -47,216 33,141 208,106 279,-4 80,-8 118,-66 126,-76 3,-5 -10,-20 -20,-29z"/>
   <path class="fil4" d="M6190 3916c14,-21 45,-34 53,13 -1,51 -21,101 -55,137 -41,-39 -24,-112 2,-150z"/>
   <path class="fil8" d="M6101 3917c-17,62 -18,143 36,182 -106,18 -67,-134 -36,-182z"/>
   <path class="fil8" d="M6646 4016c-1,-3 -5,-3 -8,2 -6,9 -65,91 -78,65 -12,-23 24,-100 65,-189 20,-44 13,-70 9,-81 -2,-2 -5,-4 -8,-3 -56,21 -180,21 -219,-31 -4,-8 -10,-6 -14,-4 -46,17 -42,120 -1,134 -12,43 -40,83 -67,122 -4,8 22,31 24,29 33,-40 67,-90 87,-137 23,5 52,1 77,-7 -19,39 -146,285 -21,299 77,7 144,-120 173,-171 3,-7 -7,-16 -19,-28z"/>
   <path class="fil8" d="M6889 3703c-3,-1 -7,1 -7,4 -3,10 -9,29 -33,40 16,-35 47,-104 52,-116 11,-24 -18,-38 -47,-37 -25,0 -48,2 -70,6 -3,1 -7,3 -6,8 0,5 14,11 -1,46 -3,8 -21,49 -44,102 -31,0 -55,36 -47,59 2,3 6,4 8,2 5,-5 14,-7 16,-7 -25,60 -53,125 -68,172 -45,143 -23,224 34,233 43,6 78,-16 150,-102 30,-37 51,-70 51,-70 0,0 -17,-39 -21,-36 -4,5 -61,93 -106,92 -45,-2 44,-245 67,-281 26,1 51,-1 69,-11 42,-18 49,-90 3,-104z"/>
   <path class="fil8" d="M3131 3788c0,-20 -19,-26 -33,-18 -9,6 -13,19 -5,30 6,10 -7,17 -13,22 -2,2 -2,4 6,4 21,0 45,-15 45,-38z"/>
   <path class="fil8" d="M2663 3326c-13,-1 -23,10 -24,22 -40,170 -253,107 -415,90 -22,-1 -151,-11 -224,28 -8,6 -5,18 3,23 12,4 35,11 48,21 23,17 33,44 45,54 8,5 18,3 23,-4 40,-49 96,-36 148,-25l71 15c127,23 380,83 408,-106 12,-77 -43,-113 -83,-118z"/>
  </g>
 </g>
</svg>
