<svg width="597" height="88" viewBox="0 0 597 88" fill="none" xmlns="http://www.w3.org/2000/svg">
<path d="M133.3 28.05H142V55.55C142 57.85 141.8 59.6667 141.4 61C141.033 62.3333 140.283 63.4333 139.15 64.3C138.017 65.1333 136.55 65.7 134.75 66C132.95 66.3 130.517 66.45 127.45 66.45C123.55 66.45 120.617 66.1167 118.65 65.45C116.683 64.7833 115.317 63.7 114.55 62.2C113.817 60.7 113.45 58.4833 113.45 55.55V52.45H121.75V55.55C121.75 57.05 122.1 58.0333 122.8 58.5C123.533 58.9667 125.1 59.2 127.5 59.2C129.9 59.2 131.467 58.9667 132.2 58.5C132.933 58.0333 133.3 57.05 133.3 55.55V28.05ZM157.696 28.05H167.646L180.196 66H171.646L169.196 58.05H155.746L153.246 66H144.696L157.696 28.05ZM162.596 36.55L157.896 51.3H167.096L162.596 36.55ZM176.235 28.05H186.035L193.635 44.2L201.185 28.05H210.735L197.735 53.15V66H189.235V53.15L176.235 28.05ZM214.152 28.05H221.652V34.05L218.902 41.05H215.002L216.202 35.75H214.152V28.05ZM226.271 53.85H234.621C234.554 54.1833 234.521 54.7667 234.521 55.6C234.521 57 234.971 57.9833 235.871 58.55C236.804 59.1167 238.704 59.4 241.571 59.4C244.038 59.4 245.704 59.0667 246.571 58.4C247.438 57.7333 247.871 56.6667 247.871 55.2C247.871 54 247.688 53.1167 247.321 52.55C246.988 51.95 246.271 51.45 245.171 51.05C244.038 50.55 241.704 49.9833 238.171 49.35C234.671 48.7167 232.171 47.9667 230.671 47.1C229.204 46.2667 228.138 45.1667 227.471 43.8C226.804 42.4 226.471 40.55 226.471 38.25C226.471 36.0167 226.754 34.2 227.321 32.8C227.888 31.4 228.838 30.3167 230.171 29.55C231.504 28.75 233.088 28.2167 234.921 27.95C236.754 27.65 239.121 27.5 242.021 27.5C247.188 27.5 250.804 28.1333 252.871 29.4C254.938 30.6333 255.971 33.15 255.971 36.95C255.971 38.0167 255.921 38.8 255.821 39.3H247.721C247.788 39 247.821 38.5167 247.821 37.85C247.821 36.6833 247.404 35.85 246.571 35.35C245.771 34.8167 244.138 34.55 241.671 34.55C239.104 34.55 237.371 34.8333 236.471 35.4C235.604 35.9667 235.171 36.95 235.171 38.35C235.171 39.6167 235.438 40.5667 235.971 41.2C236.504 41.8333 237.438 42.2833 238.771 42.55C239.271 42.6833 241.154 42.9667 244.421 43.4C247.688 43.8 250.121 44.3333 251.721 45C253.588 45.8 254.871 47.0167 255.571 48.65C256.304 50.25 256.671 52.25 256.671 54.65C256.671 59.25 255.588 62.3667 253.421 64C251.254 65.6333 247.321 66.45 241.621 66.45C235.921 66.45 231.904 65.75 229.571 64.35C227.271 62.95 226.121 60.35 226.121 56.55C226.121 56.15 226.171 55.25 226.271 53.85ZM275.355 28.05H304.055V35.55H294.005V66H285.355V35.55H275.355V28.05ZM308.266 28.05H327.366C331.433 28.05 334.366 28.7833 336.166 30.25C338 31.6833 338.916 34.3833 338.916 38.35V39.6C338.916 42.3667 338.483 44.4 337.616 45.7C336.75 46.9667 335.35 47.7667 333.416 48.1C335.216 48.4333 336.55 49.0667 337.416 50C338.283 50.9333 338.716 52.5667 338.716 54.9V59.05C338.716 61.55 338.95 63.8667 339.416 66H330.916C330.516 64.7 330.316 62.6667 330.316 59.9V55.7C330.316 54.3667 330.083 53.3833 329.616 52.75C329.183 52.0833 328.283 51.75 326.916 51.75H316.666V66H308.266V28.05ZM316.666 35.3V45.15H326.916C328.216 45.15 329.083 44.8 329.516 44.1C329.983 43.4 330.216 42.3167 330.216 40.85V39.3C330.216 37.9333 329.983 36.9333 329.516 36.3C329.05 35.6333 328.2 35.3 326.966 35.3H316.666ZM355.988 28.05H365.938L378.488 66H369.937L367.488 58.05H354.038L351.538 66H342.988L355.988 28.05ZM360.888 36.55L356.188 51.3H365.388L360.888 36.55ZM382.872 28.05H393.922L409.072 53.25V28.05H416.572V66H406.522L390.172 38.75V66H382.872V28.05ZM422.267 53.85H430.617C430.551 54.1833 430.517 54.7667 430.517 55.6C430.517 57 430.967 57.9833 431.867 58.55C432.801 59.1167 434.701 59.4 437.567 59.4C440.034 59.4 441.701 59.0667 442.567 58.4C443.434 57.7333 443.867 56.6667 443.867 55.2C443.867 54 443.684 53.1167 443.317 52.55C442.984 51.95 442.267 51.45 441.167 51.05C440.034 50.55 437.701 49.9833 434.167 49.35C430.667 48.7167 428.167 47.9667 426.667 47.1C425.201 46.2667 424.134 45.1667 423.467 43.8C422.801 42.4 422.467 40.55 422.467 38.25C422.467 36.0167 422.751 34.2 423.317 32.8C423.884 31.4 424.834 30.3167 426.167 29.55C427.501 28.75 429.084 28.2167 430.917 27.95C432.751 27.65 435.117 27.5 438.017 27.5C443.184 27.5 446.801 28.1333 448.867 29.4C450.934 30.6333 451.967 33.15 451.967 36.95C451.967 38.0167 451.917 38.8 451.817 39.3H443.717C443.784 39 443.817 38.5167 443.817 37.85C443.817 36.6833 443.401 35.85 442.567 35.35C441.767 34.8167 440.134 34.55 437.667 34.55C435.101 34.55 433.367 34.8333 432.467 35.4C431.601 35.9667 431.167 36.95 431.167 38.35C431.167 39.6167 431.434 40.5667 431.967 41.2C432.501 41.8333 433.434 42.2833 434.767 42.55C435.267 42.6833 437.151 42.9667 440.417 43.4C443.684 43.8 446.117 44.3333 447.717 45C449.584 45.8 450.867 47.0167 451.567 48.65C452.301 50.25 452.667 52.25 452.667 54.65C452.667 59.25 451.584 62.3667 449.417 64C447.251 65.6333 443.317 66.45 437.617 66.45C431.917 66.45 427.901 65.75 425.567 64.35C423.267 62.95 422.117 60.35 422.117 56.55C422.117 56.15 422.167 55.25 422.267 53.85ZM458.315 28.05H478.415C480.615 28.05 482.365 28.25 483.665 28.65C484.965 29.0167 485.965 29.7167 486.665 30.75C487.399 31.7833 487.882 33 488.115 34.4C488.349 35.8 488.465 37.7 488.465 40.1V42.4C488.465 44.6333 488.349 46.4167 488.115 47.75C487.882 49.05 487.382 50.2167 486.615 51.25C485.882 52.25 484.799 52.95 483.365 53.35C481.965 53.75 480.099 53.95 477.765 53.95H467.065V66H458.315V28.05ZM467.065 35.4V46.75H477.115C478.315 46.75 479.082 46.45 479.415 45.85C479.782 45.25 479.965 44.2333 479.965 42.8V39.85C479.965 38.25 479.782 37.1167 479.415 36.45C479.082 35.75 478.349 35.4 477.215 35.4H467.065ZM509.868 27.5C512.468 27.5 514.651 27.6167 516.418 27.85C518.185 28.0833 519.701 28.5333 520.968 29.2C522.268 29.8667 523.268 30.6333 523.968 31.5C524.701 32.3333 525.268 33.5667 525.668 35.2C526.068 36.8333 526.318 38.5167 526.418 40.25C526.551 41.95 526.618 44.2167 526.618 47.05C526.618 49.8833 526.551 52.1667 526.418 53.9C526.318 55.6 526.068 57.2667 525.668 58.9C525.268 60.5 524.701 61.7167 523.968 62.55C523.268 63.3833 522.268 64.1333 520.968 64.8C519.701 65.4667 518.185 65.9 516.418 66.1C514.651 66.3333 512.468 66.45 509.868 66.45C507.235 66.45 505.035 66.3333 503.268 66.1C501.501 65.9 499.968 65.4667 498.668 64.8C497.401 64.1333 496.418 63.3833 495.718 62.55C495.018 61.7167 494.468 60.4833 494.068 58.85C493.668 57.2167 493.401 55.55 493.268 53.85C493.168 52.15 493.118 49.8833 493.118 47.05C493.118 44.2167 493.168 41.95 493.268 40.25C493.401 38.5167 493.668 36.8333 494.068 35.2C494.468 33.5667 495.018 32.3333 495.718 31.5C496.418 30.6333 497.401 29.8667 498.668 29.2C499.968 28.5333 501.501 28.0833 503.268 27.85C505.035 27.6167 507.235 27.5 509.868 27.5ZM509.868 34.65C508.068 34.65 506.635 34.8 505.568 35.1C504.501 35.3667 503.685 35.8667 503.118 36.6C502.585 37.3333 502.235 38.15 502.068 39.05C501.901 39.95 501.818 41.1833 501.818 42.75V50.6C501.818 52.3333 501.901 53.7 502.068 54.7C502.235 55.6667 502.585 56.55 503.118 57.35C503.685 58.1167 504.501 58.65 505.568 58.95C506.635 59.25 508.068 59.4 509.868 59.4C511.635 59.4 513.051 59.25 514.118 58.95C515.185 58.65 515.985 58.1167 516.518 57.35C517.085 56.55 517.451 55.6667 517.618 54.7C517.785 53.7 517.868 52.3333 517.868 50.6V42.75C517.868 39.6833 517.368 37.5667 516.368 36.4C515.401 35.2333 513.235 34.65 509.868 34.65ZM532.583 28.05H551.683C555.749 28.05 558.683 28.7833 560.483 30.25C562.316 31.6833 563.233 34.3833 563.233 38.35V39.6C563.233 42.3667 562.799 44.4 561.933 45.7C561.066 46.9667 559.666 47.7667 557.733 48.1C559.533 48.4333 560.866 49.0667 561.733 50C562.599 50.9333 563.033 52.5667 563.033 54.9V59.05C563.033 61.55 563.266 63.8667 563.733 66H555.233C554.833 64.7 554.633 62.6667 554.633 59.9V55.7C554.633 54.3667 554.399 53.3833 553.933 52.75C553.499 52.0833 552.599 51.75 551.233 51.75H540.983V66H532.583V28.05ZM540.983 35.3V45.15H551.233C552.533 45.15 553.399 44.8 553.833 44.1C554.299 43.4 554.533 42.3167 554.533 40.85V39.3C554.533 37.9333 554.299 36.9333 553.833 36.3C553.366 35.6333 552.516 35.3 551.283 35.3H540.983ZM566.321 28.05H595.021V35.55H584.971V66H576.321V35.55H566.321V28.05Z" fill="white"/>
<g clip-path="url(#clip0_5_4)">
<path fill-rule="evenodd" clip-rule="evenodd" d="M14.5514 33C16.7952 27.0011 20.8176 21.8305 26.0804 18.1801C31.3431 14.5298 37.5952 12.5737 44 12.5737C50.4048 12.5737 56.6569 14.5298 61.9196 18.1801C67.1824 21.8305 71.2048 27.0011 73.4486 33H14.5514ZM12.6091 42.4286C12.2188 50.2089 14.7319 57.8569 19.6609 63.8892C24.59 69.9216 31.5837 73.9085 39.2857 75.0766V57.4703L26.1234 42.4286H12.6091ZM48.7143 75.0766C56.4163 73.9085 63.41 69.9216 68.3391 63.8892C73.2681 57.8569 75.7812 50.2089 75.3909 42.4286H61.8766L48.7143 57.4703V75.0766ZM44 0C32.3305 0 21.1389 4.6357 12.8873 12.8873C4.6357 21.1389 0 32.3305 0 44C0 55.6695 4.6357 66.8611 12.8873 75.1127C21.1389 83.3643 32.3305 88 44 88C55.6695 88 66.8611 83.3643 75.1127 75.1127C83.3643 66.8611 88 55.6695 88 44C88 32.3305 83.3643 21.1389 75.1127 12.8873C66.8611 4.6357 55.6695 0 44 0Z" fill="white"/>
</g>
<defs>
<clipPath id="clip0_5_4">
<rect width="88" height="88" fill="white"/>
</clipPath>
</defs>
</svg>
