<svg width="264" height="264" viewBox="0 0 264 264" fill="none" xmlns="http://www.w3.org/2000/svg">
<path d="M44 220C37.95 220 32.7727 217.848 28.468 213.543C24.1633 209.238 22.0073 204.057 22 198V66C22 59.95 24.156 54.7727 28.468 50.468C32.78 46.1633 37.9573 44.0073 44 44H220C226.05 44 231.231 46.156 235.543 50.468C239.855 54.78 242.007 59.9573 242 66V198C242 204.05 239.848 209.231 235.543 213.543C231.238 217.855 226.057 220.007 220 220H44ZM132 143L220 88V66L132 121L44 66V88L132 143Z" fill="white"/>
</svg>
